<svg width="156" height="208" viewBox="0 0 156 208" fill="none" xmlns="http://www.w3.org/2000/svg">
<g opacity="0.36">
<path d="M95.2171 156.049C106.874 159.888 117.162 162.341 131.956 166.709C126.271 235.809 58.3912 208.37 95.2171 156.049ZM155.825 92.5734C155.063 71.8252 151.266 44.6116 121.027 48.8756C106.848 52.4376 96.3785 67.4224 91.4557 93.2754C89.1397 108.641 89.8403 124.311 93.5184 139.408C96.4305 147.841 95.4425 147.321 98.5713 148.942C110.705 151.542 122.691 154.48 134.912 157.444C147.314 148.985 157.507 104.178 155.817 92.5734H155.825ZM62.4993 90.996C66.1652 75.8901 66.8541 60.2148 64.5274 44.8456C59.6392 18.9926 49.1609 3.99916 34.9817 0.44579C4.72528 -3.81825 0.946483 23.3953 0.183789 44.1436C-1.50627 55.7483 8.6947 100.555 21.1058 108.997C33.3262 106.033 45.3213 103.121 57.4464 100.495C60.5752 98.8914 59.5872 99.4028 62.4993 90.996ZM24.0526 118.279C29.7295 187.379 97.6092 159.931 60.7832 107.619C49.1262 111.458 38.8385 113.911 24.0526 118.279Z" fill="white"/>
</g>
</svg>
