<svg width="140" height="21" viewBox="0 0 140 21" fill="none" xmlns="http://www.w3.org/2000/svg">
<path d="M44.716 9.959C44.7304 11.3353 44.4405 12.6978 43.867 13.949C43.3213 15.1449 42.5389 16.2178 41.567 17.103C40.5638 18.001 39.3973 18.6976 38.131 19.155C36.7859 19.6467 35.3631 19.8913 33.931 19.877C32.4987 19.8948 31.0752 19.6501 29.731 19.155C28.48 18.6882 27.327 17.9923 26.331 17.103C25.3591 16.2179 24.5767 15.1449 24.031 13.949C23.4575 12.6978 23.1676 11.3353 23.182 9.959C23.1676 8.58269 23.4575 7.22021 24.031 5.969C24.5864 4.77877 25.3675 3.70763 26.331 2.815C27.3444 1.93432 28.5051 1.23934 29.76 0.761999C32.48 -0.200696 35.448 -0.200696 38.168 0.761999C39.4298 1.22888 40.5946 1.92452 41.604 2.814C42.5759 3.69913 43.3583 4.77206 43.904 5.968C44.4466 7.22822 44.7231 8.58694 44.716 9.959ZM26.729 9.959C26.719 10.9748 26.9114 11.9824 27.295 12.923C27.6298 13.7685 28.1412 14.5329 28.795 15.165C29.4536 15.7826 30.2213 16.2722 31.059 16.609C32.9434 17.2678 34.9956 17.2678 36.88 16.609C37.7299 16.2964 38.5022 15.8038 39.144 15.165C39.7896 14.5261 40.2997 13.7635 40.644 12.923C41.0276 11.9824 41.22 10.9748 41.21 9.959C41.2201 8.95552 41.0276 7.96032 40.644 7.033C40.3082 6.20024 39.7965 5.44981 39.144 4.833C38.4814 4.22438 37.7104 3.74573 36.871 3.422C34.9866 2.76318 32.9344 2.76318 31.05 3.422C30.2094 3.7356 29.4398 4.21357 28.786 4.828C28.1417 5.45181 27.6313 6.20037 27.286 7.028C26.9008 7.95635 26.7109 8.95406 26.728 9.959H26.729Z" fill="white"/>
<path d="M57.495 0.04002C58.5563 0.0306254 59.6144 0.158349 60.643 0.42002C61.6182 0.658741 62.5564 1.02879 63.432 1.52002C65.1471 2.49569 66.4958 4.0059 67.272 5.82002H63.109C62.5762 4.89337 61.774 4.15081 60.809 3.69102C59.756 3.21467 58.6094 2.98091 57.454 3.00702C56.4618 2.99058 55.4752 3.15807 54.544 3.50102C53.7034 3.81459 52.9337 4.29257 52.28 4.90702C51.6275 5.52387 51.1159 6.27429 50.78 7.10702C50.0254 8.95911 50.0254 11.0329 50.78 12.885C51.1159 13.7177 51.6275 14.4682 52.28 15.085C52.9293 15.7069 53.6996 16.1885 54.543 16.5C55.4742 16.843 56.4608 17.0105 57.453 16.994C59.1185 17.0785 60.7574 16.551 62.061 15.511C63.2391 14.4874 64.0012 13.0676 64.203 11.52H56.28V8.93502H67.88V11.482C67.7183 12.629 67.3486 13.7368 66.789 14.751C66.2157 15.7769 65.4627 16.6914 64.566 17.451C62.5799 19.0993 60.0728 19.9885 57.492 19.96C56.0597 19.9779 54.6362 19.7332 53.292 19.238C52.0409 18.771 50.8879 18.0747 49.892 17.185C48.92 16.2996 48.1376 15.2263 47.592 14.03C47.0147 12.7663 46.7248 11.3903 46.743 10.001C46.7286 8.62439 47.0185 7.26157 47.592 6.01002C48.1376 4.81376 48.92 3.74048 49.892 2.85502C50.8879 1.96531 52.0409 1.26908 53.292 0.80202C54.6295 0.275102 56.0576 0.0161956 57.495 0.04002Z" fill="white"/>
<path d="M91.458 9.95901C91.4724 11.3353 91.1825 12.6978 90.609 13.949C90.0633 15.1449 89.2809 16.2179 88.309 17.103C87.3058 18.001 86.1393 18.6976 84.873 19.155C83.5279 19.6467 82.1051 19.8913 80.673 19.877C79.2406 19.8948 77.8171 19.6501 76.473 19.155C75.222 18.6882 74.0689 17.9924 73.073 17.103C72.1011 16.2179 71.3187 15.1449 70.773 13.949C70.1995 12.6978 69.9096 11.3353 69.924 9.95901C69.9096 8.5827 70.1995 7.22021 70.773 5.96901C71.3284 4.77879 72.1095 3.70766 73.073 2.81501C74.0689 1.92566 75.222 1.22977 76.473 0.763006C79.193 -0.199689 82.161 -0.199689 84.881 0.763006C86.1473 1.22039 87.3138 1.91704 88.317 2.81501C89.2889 3.70014 90.0713 4.77307 90.617 5.96901C91.1877 7.22084 91.4749 8.5833 91.458 9.95901ZM73.471 9.95901C73.4679 10.9704 73.6458 11.9742 73.996 12.923C74.3308 13.7685 74.8422 14.5329 75.496 15.165C76.1546 15.7826 76.9223 16.2722 77.76 16.609C79.6444 17.2678 81.6966 17.2678 83.581 16.609C84.4308 16.2964 85.2031 15.8038 85.845 15.165C86.4906 14.5261 87.0007 13.7635 87.345 12.923C87.7285 11.9824 87.921 10.9748 87.911 9.95901C87.9211 8.95553 87.7286 7.96033 87.345 7.03301C87.0092 6.20025 86.4975 5.44982 85.845 4.83301C85.1847 4.22712 84.4168 3.75024 83.581 3.42701C81.6966 2.76819 79.6444 2.76819 77.76 3.42701C76.9194 3.7406 76.1497 4.21858 75.496 4.83301C74.8517 5.45682 74.3413 6.20538 73.996 7.03301C73.6453 7.96855 73.4671 8.9599 73.47 9.95901H73.471Z" fill="white"/>
<path d="M98.288 17.695C98.3017 17.989 98.2509 18.2824 98.1392 18.5547C98.0274 18.827 97.8573 19.0715 97.641 19.271C97.2331 19.679 96.6818 19.9112 96.105 19.918C95.811 19.9317 95.5176 19.8809 95.2453 19.7692C94.973 19.6574 94.7285 19.4873 94.529 19.271C94.1134 18.8519 93.8808 18.2852 93.882 17.695C93.8759 17.402 93.9303 17.1108 94.0416 16.8397C94.1529 16.5686 94.3188 16.3233 94.529 16.119C94.7309 15.9057 94.9758 15.7378 95.2475 15.6262C95.5192 15.5147 95.8115 15.4621 96.105 15.472C96.3926 15.4623 96.6789 15.5151 96.9441 15.6268C97.2093 15.7385 97.4471 15.9064 97.641 16.119C97.8512 16.3233 98.0171 16.5686 98.1284 16.8397C98.2397 17.1108 98.294 17.402 98.288 17.695Z" fill="white"/>
<path d="M116.192 0.0809937H119.83L111.907 19.881H107.907L99.983 0.0809937H103.702L109.927 16.535L116.192 0.0809937Z" fill="white"/>
<path d="M140 0.0809937V19.881H136.524L126.135 5.32499V19.881H122.659V0.0809937H126.135L136.523 14.901V0.0809937H139.999H140Z" fill="white"/>
<path d="M3.557 18.015C11.225 20.11 15.957 15.855 16.345 10.945H10.957V8.11501H21.221V19.837H18.391V14.975C17.6257 16.5622 16.4069 17.8869 14.8888 18.7813C13.3706 19.6758 11.6212 20.0999 9.862 20C7.59772 20.0604 5.3783 19.3617 3.557 18.015H3.557Z" fill="#00CE7D"/>
<path d="M10.429 16.8C9.55858 16.7801 8.69765 16.6145 7.882 16.31C7.0425 15.9998 6.27296 15.5259 5.618 14.916C4.96596 14.305 4.4542 13.5599 4.118 12.732C3.36339 10.8983 3.36339 8.84074 4.118 7.00701C4.4542 6.17911 4.96596 5.43399 5.618 4.82301C6.27925 4.22089 7.04706 3.74745 7.882 3.42701C8.81381 3.08687 9.80017 2.92078 10.792 2.93701C11.9464 2.91531 13.0916 3.14673 14.147 3.61501C15.1098 4.06854 15.9119 4.80406 16.447 5.72401H20.61C20.2346 4.82066 19.7009 3.99164 19.034 3.27601C18.3784 2.55877 17.6145 1.9487 16.77 1.46801C15.9027 0.965178 14.964 0.597298 13.986 0.377008C12.9554 0.117101 11.8958 -0.00959849 10.833 7.78236e-06C9.40119 -0.0175871 7.9781 0.225017 6.633 0.716008C5.35523 1.18589 4.17539 1.88803 3.153 2.78701C2.18246 3.66242 1.39996 4.72595 0.852995 5.91301C0.278292 7.15157 -0.0131072 8.50267 -4.80982e-06 9.86801C-0.0142217 11.2449 0.275675 12.608 0.848995 13.86C2.789 17.965 8.60999 17.438 10.429 16.8Z" fill="white"/>
</svg>
