<svg width="190" height="155" viewBox="0 0 190 155" fill="none" xmlns="http://www.w3.org/2000/svg">
<path d="M162.288 148.29H125.717L63.432 154.342L0.666992 148.29V0L63.174 4.53899L127.032 0L189.5 8.574L187.9 122.455L162.288 148.29Z" fill="url(#paint0_linear)"/>
<path d="M161.098 146.236H125.329L64.406 152.125L3.01099 146.236V1.946L64.152 6.364L126.611 1.946L187.711 10.289L186.143 121.094L161.098 146.236Z" fill="white"/>
<path d="M161.098 146.236H125.329L64.406 152.125L3.01099 146.236V1.946L64.152 6.364L126.611 1.946L187.711 10.289L186.143 121.094L161.098 146.236Z" fill="white"/>
<path d="M161.299 142.304H123.626L66.162 147.859L8.25098 142.304V6.20699L65.922 10.375L124.836 6.20699L182.47 14.078V121.011L161.299 142.304Z" fill="#00CE7D"/>
<path opacity="0.1" d="M65.923 147.859L123.592 142.304V6.20699L65.923 10.377" fill="black"/>
<path d="M158.63 146.009L159.074 117.917L186.145 119.009L158.63 146.009Z" fill="url(#paint1_linear)"/>
<path d="M161.097 146.008L161.497 120.084L186.142 121.093L161.097 146.008Z" fill="white"/>
<path d="M99.393 60.432C103.2 60.432 106.287 57.4601 106.287 53.794C106.287 50.1279 103.2 47.156 99.393 47.156C95.5856 47.156 92.499 50.1279 92.499 53.794C92.499 57.4601 95.5856 60.432 99.393 60.432Z" fill="url(#paint2_linear)"/>
<path fill-rule="evenodd" clip-rule="evenodd" d="M139.396 146.236H161.098L163.282 144.043L101.639 109.906L133.834 2.93231L126.611 1.946L121.217 2.32751L107.525 47.834L27.9075 3.745L3.01099 1.946V5.37905L103.543 61.05L76.4841 150.958L89.6668 149.683L97.66 123.123L139.396 146.236Z" fill="white"/>
<path d="M122.197 55.327C122.197 67.458 99.397 101.791 99.397 101.791C99.397 101.791 76.597 67.458 76.597 55.327C76.597 43.196 86.8 33.374 99.389 33.374C111.978 33.374 122.197 43.203 122.197 55.327Z" fill="url(#paint3_linear)"/>
<path d="M118.74 55.742C118.74 66.729 98.827 97.858 98.827 97.858C98.827 97.858 78.914 66.729 78.914 55.742C78.841 53.082 79.3018 50.4343 80.2693 47.9554C81.2368 45.4765 82.6914 43.2167 84.547 41.3095C86.4026 39.4022 88.6217 37.8862 91.0731 36.851C93.5245 35.8159 96.1585 35.2825 98.8195 35.2825C101.481 35.2825 104.115 35.8159 106.566 36.851C109.017 37.8862 111.236 39.4022 113.092 41.3095C114.948 43.2167 116.402 45.4765 117.37 47.9554C118.337 50.4343 118.798 53.082 118.725 55.742H118.74Z" fill="#FF5252"/>
<path d="M98.832 60.368C102.155 60.368 104.849 57.6741 104.849 54.351C104.849 51.0279 102.155 48.334 98.832 48.334C95.5089 48.334 92.815 51.0279 92.815 54.351C92.815 57.6741 95.5089 60.368 98.832 60.368Z" fill="white"/>
<defs>
<linearGradient id="paint0_linear" x1="95.0835" y1="154.342" x2="95.0835" y2="0" gradientUnits="userSpaceOnUse">
<stop stop-color="#808080" stop-opacity="0.251"/>
<stop offset="0.54" stop-color="#808080" stop-opacity="0.122"/>
<stop offset="1" stop-color="#808080" stop-opacity="0.102"/>
</linearGradient>
<linearGradient id="paint1_linear" x1="172.387" y1="146.009" x2="172.387" y2="117.917" gradientUnits="userSpaceOnUse">
<stop stop-opacity="0.122"/>
<stop offset="0.55" stop-opacity="0.09"/>
<stop offset="1" stop-opacity="0.02"/>
</linearGradient>
<linearGradient id="paint2_linear" x1="99.393" y1="60.432" x2="99.393" y2="47.156" gradientUnits="userSpaceOnUse">
<stop stop-opacity="0.122"/>
<stop offset="0.55" stop-opacity="0.09"/>
<stop offset="1" stop-opacity="0.02"/>
</linearGradient>
<linearGradient id="paint3_linear" x1="99.397" y1="33.374" x2="99.397" y2="33.374" gradientUnits="userSpaceOnUse">
<stop stop-opacity="0.122"/>
<stop offset="0.55" stop-opacity="0.09"/>
<stop offset="1" stop-opacity="0.02"/>
</linearGradient>
</defs>
</svg>
