<svg width="211" height="198" viewBox="0 0 211 198" fill="none" xmlns="http://www.w3.org/2000/svg">
<path d="M211 34.9838H19.797V162.901H211V34.9838Z" fill="url(#paint0_linear)"/>
<path d="M208.98 36.3298H21.817V41.0428H208.98V36.3298Z" fill="white"/>
<path d="M208.98 41.0428H21.817V160.433H208.98V41.0428Z" fill="#F5F5F5"/>
<path d="M25.602 40.1178C26.3293 40.1178 26.919 39.5282 26.919 38.8008C26.919 38.0735 26.3293 37.4838 25.602 37.4838C24.8746 37.4838 24.285 38.0735 24.285 38.8008C24.285 39.5282 24.8746 40.1178 25.602 40.1178Z" fill="#FF5252"/>
<path d="M29.223 40.1178C29.9504 40.1178 30.54 39.5282 30.54 38.8008C30.54 38.0735 29.9504 37.4838 29.223 37.4838C28.4956 37.4838 27.906 38.0735 27.906 38.8008C27.906 39.5282 28.4956 40.1178 29.223 40.1178Z" fill="#FFFF00"/>
<path d="M32.842 40.1178C33.5694 40.1178 34.159 39.5282 34.159 38.8008C34.159 38.0735 33.5694 37.4838 32.842 37.4838C32.1147 37.4838 31.525 38.0735 31.525 38.8008C31.525 39.5282 32.1147 40.1178 32.842 40.1178Z" fill="#69F0AE"/>
<path d="M2.59899 44.6538L3.22299 45.5738L4.69399 44.5738L5.636 46.3548L4.34899 47.2288L7.47599 51.8288L5.453 53.2048L2.32499 48.6048L1.40499 49.2288L0.277994 47.5728L1.19799 46.9488L0.573999 46.0288C0.205663 45.6053 0.0112292 45.0581 0.0297794 44.4972C0.0483297 43.9362 0.27848 43.4031 0.67399 43.0048L2.69699 41.6288L3.69699 43.0998L2.77699 43.7238C2.70257 43.7719 2.63871 43.8346 2.58927 43.9082C2.53984 43.9817 2.50585 44.0645 2.48939 44.1516C2.47293 44.2386 2.47434 44.3282 2.49352 44.4147C2.51271 44.5012 2.54927 44.5829 2.60099 44.6548L2.59899 44.6538Z" fill="url(#paint1_linear)"/>
<path d="M3.04397 43.9888L3.66796 44.9088L5.13897 43.9088L6.08097 45.6898L4.79397 46.5638L7.92097 51.1638L5.89797 52.5398L2.77098 47.9398L1.85098 48.5638L0.723963 46.9078L1.64398 46.2838L1.01997 45.3638C0.651632 44.9403 0.457213 44.3931 0.475763 43.8322C0.494314 43.2712 0.724464 42.7381 1.11997 42.3398L3.14297 40.9638L4.14297 42.4348L3.22297 43.0588C3.14856 43.1069 3.0847 43.1696 3.03526 43.2432C2.98582 43.3167 2.95183 43.3995 2.93537 43.4866C2.91891 43.5737 2.92032 43.6632 2.93951 43.7497C2.95869 43.8362 2.99525 43.9179 3.04698 43.9898L3.04397 43.9888Z" fill="#3B5998"/>
<path d="M117.059 20.8118L118.172 20.5888C117.83 20.9873 117.457 21.3594 117.059 21.7018C117.042 21.9242 117.042 22.1475 117.059 22.3698C114.922 31.5348 107.049 27.4868 107.049 27.4868C109.919 27.5548 110.163 26.3738 110.163 26.3738C109.738 26.3606 109.325 26.2284 108.972 25.9922C108.618 25.756 108.338 25.4254 108.163 25.0378C108.313 25.1172 108.487 25.1383 108.651 25.0971C108.816 25.0559 108.959 24.9554 109.054 24.8148C108.565 24.704 108.134 24.415 107.846 24.004C107.558 23.5931 107.433 23.0897 107.496 22.5918C107.816 22.8236 108.19 22.9696 108.582 23.0158C108.382 22.7718 106.682 20.7458 107.713 19.7008C108.215 20.4379 108.888 21.0431 109.674 21.465C110.46 21.887 111.336 22.1133 112.228 22.1248L112.451 22.0818C112.414 21.9216 112.399 21.757 112.408 21.5928C112.408 20.9735 112.654 20.3796 113.092 19.9417C113.53 19.5038 114.124 19.2578 114.743 19.2578C116.301 19.2578 116.643 20.1478 116.643 20.1478L117.756 19.4798C117.729 19.4788 117.615 20.5888 117.059 20.8118Z" fill="url(#paint2_linear)"/>
<path d="M117.504 20.1468L118.617 19.9238C118.275 20.3223 117.903 20.6944 117.504 21.0368C117.487 21.2592 117.487 21.4825 117.504 21.7048C115.367 30.8698 107.494 26.8218 107.494 26.8218C110.364 26.8898 110.608 25.7088 110.608 25.7088C110.183 25.6956 109.77 25.5634 109.417 25.3272C109.063 25.091 108.783 24.7604 108.608 24.3728C108.758 24.4519 108.931 24.4728 109.096 24.4317C109.26 24.3905 109.403 24.2901 109.498 24.1498C109.009 24.039 108.578 23.75 108.29 23.3391C108.002 22.9281 107.877 22.4247 107.94 21.9268C108.26 22.1586 108.634 22.3045 109.026 22.3508C108.826 22.1068 107.126 20.0808 108.157 19.0358C108.659 19.7729 109.332 20.3781 110.118 20.8C110.904 21.222 111.78 21.4483 112.672 21.4598L112.895 21.4168C112.858 21.2567 112.843 21.092 112.852 20.9278C112.852 20.6212 112.912 20.3176 113.03 20.0343C113.147 19.751 113.319 19.4936 113.536 19.2767C113.753 19.0599 114.01 18.8879 114.293 18.7706C114.577 18.6532 114.88 18.5928 115.187 18.5928C116.745 18.5928 117.087 19.4828 117.087 19.4828L118.2 18.8148C118.171 18.8108 118.06 19.9238 117.504 20.1468Z" fill="#00ACED"/>
<path d="M29.823 29.1008L31.056 24.9148C31.0641 24.6615 30.9889 24.4125 30.8419 24.206C30.6948 23.9995 30.4841 23.847 30.242 23.7718C29.9697 23.6599 29.6736 23.6182 29.3809 23.6505C29.0883 23.6829 28.8084 23.7882 28.567 23.9568L27.256 28.3568L25.128 27.7218L27.058 21.1008L29.195 21.7228L28.91 22.7058C29.2279 22.3801 29.6294 22.1482 30.0704 22.0356C30.5114 21.9231 30.9749 21.9342 31.41 22.0678C32.0797 22.2933 32.6362 22.769 32.9632 23.3955C33.2901 24.0219 33.3621 24.7505 33.164 25.4288H33.207L31.961 29.6988L29.823 29.1008ZM24.741 19.5088C24.4873 19.4348 24.2612 19.2873 24.0913 19.0848C23.9215 18.8823 23.8155 18.6339 23.7868 18.3712C23.7581 18.1084 23.808 17.8431 23.9302 17.6087C24.0524 17.3743 24.2413 17.1814 24.4731 17.0545C24.705 16.9275 24.9692 16.8721 25.2325 16.8954C25.4958 16.9187 25.7462 17.0195 25.9522 17.1851C26.1582 17.3508 26.3104 17.5738 26.3896 17.826C26.4687 18.0782 26.4713 18.3482 26.397 18.6018C26.2975 18.9416 26.0672 19.2279 25.7567 19.398C25.4462 19.568 25.0809 19.6079 24.741 19.5088ZM23.631 27.2948L21.494 26.6728L23.424 20.0518L25.561 20.6738L23.631 27.2948Z" fill="url(#paint3_linear)"/>
<path d="M30.268 28.4318L31.487 24.2458C31.4953 23.9924 31.4201 23.7433 31.2731 23.5368C31.126 23.3303 30.9152 23.1778 30.673 23.1028C30.4007 22.9909 30.1046 22.9492 29.8119 22.9815C29.5192 23.0139 29.2394 23.1192 28.998 23.2878L27.717 27.6878L25.58 27.0658L27.51 20.4448L29.647 21.0668L29.362 22.0498C29.6799 21.724 30.0813 21.4922 30.5224 21.3796C30.9634 21.2671 31.4269 21.2782 31.862 21.4118C32.5309 21.6367 33.0871 22.1112 33.4145 22.7364C33.7419 23.3615 33.8151 24.0889 33.619 24.7668H33.662L32.413 29.0538L30.268 28.4318ZM25.186 18.8408C24.9323 18.7668 24.7061 18.6193 24.5363 18.4168C24.3664 18.2143 24.2605 17.9659 24.2318 17.7032C24.2031 17.4404 24.253 17.1751 24.3752 16.9407C24.4974 16.7063 24.6863 16.5134 24.9181 16.3864C25.1499 16.2595 25.4142 16.2041 25.6775 16.2274C25.9408 16.2507 26.1913 16.3515 26.3972 16.5171C26.6032 16.6828 26.7554 16.9058 26.8346 17.158C26.9137 17.4102 26.9163 17.6802 26.842 17.9338C26.7425 18.2736 26.5122 18.5599 26.2017 18.73C25.8912 18.9 25.5259 18.9399 25.186 18.8408ZM24.076 26.6328L21.939 26.0108L23.869 19.3898L26.006 20.0118L24.076 26.6328Z" fill="#0077B5"/>
<path d="M69.012 16.2538C68.768 17.4318 68.588 19.0338 66.121 19.5908C66.121 19.5908 64.674 19.9678 64.221 18.9228C64.0453 19.7589 63.7919 20.5768 63.464 21.3658C63.1293 21.9102 62.7574 22.4307 62.351 22.9238C62.351 22.9238 62.551 20.9238 62.574 20.4808C62.596 19.7908 63.242 16.6988 63.242 16.6988C63.242 16.6988 62.642 14.5268 64.132 14.2558C64.132 14.2558 65.356 13.9658 65.022 15.5918C65.022 15.5918 64.778 16.6588 64.479 17.8828L64.59 18.0378C64.6768 18.2103 64.8023 18.3603 64.9567 18.4762C65.1111 18.5921 65.2902 18.6707 65.48 18.7058C66.08 18.7738 67.652 17.7058 67.703 15.8148C67.754 13.9238 67.347 13.3908 65.703 12.9238C65.3527 12.8042 64.9821 12.7555 64.6128 12.7803C64.2435 12.8051 63.8828 12.9031 63.5517 13.0685C63.2206 13.234 62.9256 13.4635 62.6839 13.7439C62.4423 14.0243 62.2588 14.3499 62.144 14.7018C61.566 16.3468 62.033 16.7488 62.367 17.1448L62.144 18.2578C61.6869 18.093 61.2919 17.7909 61.013 17.393C60.7341 16.9951 60.585 16.5207 60.586 16.0348C60.5708 15.4564 60.6773 14.8812 60.8986 14.3466C61.1199 13.8119 61.451 13.3297 61.8705 12.9312C62.2901 12.5327 62.7886 12.2268 63.3339 12.0333C63.8792 11.8397 64.4591 11.7629 65.036 11.8078C65.6029 11.7946 66.1659 11.9045 66.6861 12.1299C67.2064 12.3554 67.6716 12.691 68.0496 13.1136C68.4276 13.5363 68.7094 14.0359 68.8755 14.5781C69.0417 15.1202 69.0883 15.6919 69.012 16.2538Z" fill="url(#paint4_linear)"/>
<path d="M69.457 15.5858C69.213 16.7638 69.033 18.3658 66.566 18.9228C66.566 18.9228 65.119 19.2998 64.666 18.2548C64.4903 19.091 64.2368 19.9088 63.909 20.6978C63.5742 21.2421 63.2024 21.7627 62.796 22.2558C62.796 22.2558 62.996 20.2558 63.019 19.8128C63.041 19.1228 63.687 16.0308 63.687 16.0308C63.687 16.0308 63.087 13.8588 64.577 13.5878C64.577 13.5878 65.801 13.2978 65.467 14.9238C65.467 14.9238 65.223 15.9908 64.924 17.2148L65.035 17.3698C65.1217 17.5423 65.2472 17.6923 65.4016 17.8082C65.556 17.9241 65.7351 18.0027 65.925 18.0378C66.525 18.1058 68.097 17.0378 68.148 15.1468C68.199 13.2558 67.792 12.7228 66.148 12.2558C65.7977 12.1362 65.4271 12.0875 65.0578 12.1123C64.6885 12.1371 64.3278 12.2351 63.9966 12.4006C63.6655 12.566 63.3705 12.7955 63.1289 13.0759C62.8872 13.3563 62.7037 13.6819 62.589 14.0338C62.011 15.6788 62.478 16.0808 62.812 16.4768L62.589 17.5898C62.1318 17.4251 61.7367 17.1231 61.4578 16.7251C61.1789 16.3272 61.0298 15.8528 61.031 15.3668C61.0158 14.7884 61.1223 14.2132 61.3436 13.6786C61.5648 13.1439 61.896 12.6617 62.3155 12.2632C62.735 11.8647 63.2336 11.5588 63.7789 11.3653C64.3242 11.1717 64.9041 11.0949 65.481 11.1398C66.0478 11.1266 66.6108 11.2365 67.1311 11.4619C67.6514 11.6874 68.1166 12.023 68.4946 12.4456C68.8725 12.8683 69.1543 13.368 69.3205 13.9101C69.4866 14.4522 69.5332 15.0239 69.457 15.5858Z" fill="#BD081C"/>
<path d="M136.391 5.81282H134.947V7.25983C134.945 7.34777 134.909 7.43155 134.847 7.49375C134.785 7.55595 134.701 7.5918 134.613 7.59383H134.39C134.302 7.5918 134.218 7.55595 134.156 7.49375C134.094 7.43155 134.058 7.34777 134.056 7.25983V5.81282H132.593C132.505 5.81079 132.421 5.77495 132.359 5.71275C132.297 5.65055 132.261 5.56677 132.259 5.47883V5.25583C132.259 5.16649 132.294 5.08069 132.356 5.01678C132.419 4.95287 132.504 4.91592 132.593 4.91383H134.04V3.47483C134.042 3.38688 134.078 3.30311 134.14 3.24091C134.202 3.17871 134.286 3.14286 134.374 3.14083H134.597C134.685 3.14286 134.769 3.17871 134.831 3.24091C134.893 3.30311 134.929 3.38688 134.931 3.47483V4.91383H136.394C136.482 4.91586 136.566 4.9517 136.628 5.01391C136.69 5.07611 136.726 5.15989 136.728 5.24783V5.47083C136.728 5.56067 136.693 5.64692 136.63 5.71091C136.567 5.77491 136.481 5.81151 136.391 5.81282ZM131.363 1.89783C131.664 2.28617 131.828 2.76333 131.83 3.25483C131.818 3.72079 131.668 4.17274 131.399 4.55324C131.13 4.93375 130.753 5.22563 130.318 5.39183C130.386 5.61483 130.609 5.85883 131.162 6.26083C131.49 6.53538 131.758 6.87437 131.949 7.25676C132.141 7.63916 132.252 8.05682 132.275 8.48383V8.59483C132.275 9.75183 130.875 10.7068 129.161 10.7068C127.447 10.7068 126.047 9.75083 126.047 8.59483C126.047 7.48183 127.315 6.56983 128.938 6.48283V5.56483C128.626 5.55163 128.321 5.47603 128.039 5.34252C127.757 5.209 127.505 5.02029 127.297 4.78755C127.089 4.5548 126.931 4.28277 126.83 3.98755C126.73 3.69232 126.689 3.37992 126.712 3.06884C126.734 2.75777 126.819 2.45434 126.96 2.17653C127.102 1.89872 127.298 1.65218 127.537 1.45151C127.776 1.25084 128.052 1.10012 128.35 1.00828C128.648 0.91644 128.962 0.88534 129.272 0.916829H129.383C129.383 0.916829 131.94 0.716829 132.274 0.693829C132.608 0.670829 132.497 1.13883 132.497 1.13883L131.363 1.89783ZM127.595 8.48083C127.517 8.82671 127.549 9.18817 127.686 9.51528C127.822 9.84239 128.057 10.119 128.358 10.3068C128.658 10.4947 129.01 10.5845 129.364 10.5639C129.718 10.5433 130.056 10.4133 130.333 10.1919C130.61 9.97044 130.811 9.66848 130.909 9.32773C131.007 8.98699 130.996 8.62429 130.879 8.28976C130.762 7.95523 130.543 7.66539 130.254 7.46029C129.965 7.25519 129.619 7.14495 129.265 7.14483C128.868 7.10812 128.472 7.22682 128.16 7.47597C127.849 7.72512 127.646 8.08532 127.595 8.48083ZM130.31 3.03183C130.131 2.18783 129.51 1.58483 128.931 1.69583C128.352 1.80683 128.04 2.60783 128.22 3.45283C128.4 4.29783 129.02 4.89983 129.599 4.78883C130.178 4.67783 130.49 3.89883 130.31 3.02983V3.03183Z" fill="url(#paint5_linear)"/>
<path d="M136.828 5.14483H135.381V6.59183C135.379 6.67977 135.343 6.76355 135.281 6.82575C135.219 6.88795 135.135 6.9238 135.047 6.92583H134.824C134.736 6.9238 134.652 6.88795 134.59 6.82575C134.528 6.76355 134.492 6.67977 134.49 6.59183V5.14483H133.043C132.955 5.14279 132.871 5.10695 132.809 5.04475C132.747 4.98255 132.711 4.89877 132.709 4.81083V4.58783C132.711 4.49988 132.747 4.41611 132.809 4.35391C132.871 4.29171 132.955 4.25586 133.043 4.25383H134.49V2.80683C134.492 2.71889 134.528 2.63511 134.59 2.5729C134.652 2.5107 134.736 2.47486 134.824 2.47283H135.047C135.135 2.47486 135.219 2.5107 135.281 2.5729C135.343 2.63511 135.379 2.71889 135.381 2.80683V4.25383H136.828C136.916 4.25586 137 4.29171 137.062 4.35391C137.124 4.41611 137.16 4.49988 137.162 4.58783V4.81083C137.16 4.89877 137.124 4.98255 137.062 5.04475C137 5.10695 136.916 5.14279 136.828 5.14483ZM131.8 1.22982C132.101 1.6182 132.265 2.09534 132.267 2.58683C132.255 3.05279 132.105 3.50474 131.836 3.88524C131.567 4.26575 131.19 4.55764 130.755 4.72383C130.823 4.94683 131.046 5.19083 131.599 5.59283C131.927 5.86738 132.195 6.20637 132.386 6.58876C132.578 6.97116 132.689 7.38882 132.712 7.81583V7.92683C132.712 9.08383 131.312 10.0388 129.598 10.0388C127.884 10.0388 126.484 9.08283 126.484 7.92683C126.484 6.81383 127.752 5.90183 129.375 5.81483V4.90283C129.063 4.88963 128.758 4.81404 128.476 4.68052C128.194 4.54701 127.942 4.35829 127.734 4.12555C127.526 3.8928 127.368 3.62076 127.267 3.32554C127.167 3.03032 127.126 2.71792 127.149 2.40684C127.171 2.09576 127.256 1.79234 127.397 1.51453C127.539 1.23672 127.735 0.99018 127.974 0.789509C128.213 0.588839 128.489 0.438122 128.787 0.34628C129.085 0.254438 129.399 0.223337 129.709 0.254826H129.82C129.82 0.254826 132.377 0.0548267 132.711 0.0318267C133.045 0.00882667 132.934 0.476826 132.934 0.476826L131.8 1.22982ZM128.04 7.81282C127.962 8.1587 127.994 8.52017 128.131 8.84728C128.267 9.17439 128.502 9.45098 128.803 9.63884C129.103 9.82669 129.455 9.91653 129.809 9.89594C130.163 9.87535 130.501 9.74534 130.778 9.52389C131.055 9.30244 131.256 9.00048 131.354 8.65973C131.452 8.31899 131.441 7.95629 131.324 7.62176C131.207 7.28723 130.988 6.99738 130.699 6.79228C130.41 6.58718 130.064 6.47695 129.71 6.47683C129.313 6.44043 128.917 6.55953 128.606 6.80907C128.294 7.05861 128.092 7.41914 128.041 7.81483L128.04 7.81282ZM130.755 2.36383C130.576 1.51983 129.955 0.916829 129.376 1.02783C128.797 1.13883 128.486 1.93983 128.665 2.78383C128.844 3.62783 129.465 4.23083 130.044 4.11983C130.623 4.00883 130.935 3.23083 130.755 2.36483V2.36383Z" fill="#D34836"/>
<path d="M206.469 29.9148C206.501 29.8722 206.52 29.8218 206.526 29.769C206.531 29.7162 206.522 29.6629 206.499 29.6148C205.766 27.9318 205.03 28.3528 202.858 23.5418C200.548 18.4248 201.123 16.7108 200.258 15.7338C199.91 15.3428 199.566 14.0338 199.102 13.8088L198.802 12.4298C199.077 12.4645 199.356 12.4154 199.602 12.2888C200.081 11.9991 200.481 11.5963 200.767 11.1158C201.27 10.4035 201.67 9.62385 201.956 8.79983C202.157 8.18506 202.273 7.54587 202.301 6.89983V6.62883C202.305 6.39857 202.297 6.16824 202.277 5.93883C202.822 5.83207 203.33 5.58609 203.751 5.22483C204.284 4.71639 204.617 4.03314 204.688 3.29983C204.688 3.22383 204.704 3.15083 204.707 3.07483C204.71 2.99883 204.707 2.89583 204.707 2.80383C204.691 2.35894 204.577 1.92311 204.373 1.52719C204.169 1.13128 203.881 0.784976 203.529 0.512828C202.928 0.106168 202.199 -0.0676582 201.479 0.02383C200.768 0.120151 200.073 0.311876 199.413 0.59383C199.196 0.667678 198.983 0.752791 198.775 0.848827C198.296 0.667759 197.787 0.575917 197.275 0.577831C196.441 0.62368 195.617 0.792153 194.832 1.07783L192.132 1.89183C191.507 2.02549 190.93 2.32775 190.465 2.76583C190.415 2.82305 190.369 2.88388 190.327 2.94783L190.284 3.01883L190.211 3.14883L190.168 3.24883C190.152 3.28383 190.138 3.32183 190.125 3.35983C190.112 3.39783 190.095 3.44083 190.084 3.48183C190.049 3.60942 190.028 3.74058 190.022 3.87283C190.018 3.9351 190.018 3.99756 190.022 4.05983V4.10883C190.038 4.31487 190.109 4.51281 190.228 4.68183C190.388 4.87707 190.59 5.03307 190.82 5.13783C191.082 5.27652 191.354 5.39552 191.634 5.49383C191.126 6.36144 190.861 7.34957 190.866 8.35483V8.70283C190.866 11.5208 192.859 13.8028 195.318 13.8028H195.391L195.521 15.0028C194.907 15.7452 194.396 16.5669 194.001 17.4458C193.486 18.0207 193.219 18.7752 193.257 19.5458C193.243 20.8788 193.748 22.6758 193.938 25.7248C193.938 25.9368 193.957 26.1568 193.957 26.3818C193.948 27.2228 193.887 28.0623 193.775 28.8958C193.726 28.9198 193.675 28.9478 193.629 28.9688C193.514 29.0178 193.396 29.0605 193.276 29.0968C193.034 29.1711 192.784 29.2184 192.532 29.2378L192.087 29.2758C191.642 29.3168 191.207 29.3658 190.811 29.4278C190.36 29.4867 189.916 29.5902 189.486 29.7368C189.233 29.8371 189.015 30.0113 188.862 30.2368C188.796 30.3286 188.738 30.4256 188.688 30.5268C188.663 30.5795 188.638 30.6328 188.615 30.6868C188.569 30.7995 188.529 30.9147 188.496 31.0318C188.491 31.068 188.482 31.1036 188.469 31.1378C188.063 31.1336 187.659 31.0917 187.261 31.0128C187.073 30.9697 186.881 30.9432 186.688 30.9338C186.795 30.8989 186.905 30.8718 187.016 30.8528C186.663 30.7828 186.299 30.7943 185.951 30.8865C185.604 30.9788 185.282 31.1493 185.01 31.385C184.739 31.6207 184.525 31.9155 184.384 32.2467C184.244 32.5778 184.181 32.9367 184.201 33.2958C184.174 33.9531 184.397 34.5961 184.825 35.0958C185.925 36.3578 187.268 49.4848 187.268 49.4848H187.825V50.8638C185.569 51.0208 183.286 51.3388 183.286 51.9848C183.29 52.2865 183.356 52.5841 183.48 52.8593C183.603 53.1345 183.782 53.3814 184.005 53.5848C183.972 53.5388 183.94 53.4848 183.91 53.4408C184.075 53.6362 184.269 53.8049 184.486 53.9408H196.73V51.0498H196.749V50.6998C196.749 50.6998 196.304 50.6998 195.617 50.7138V49.4758H196.174C196.674 44.3448 194.502 37.6908 194.035 36.3358C194.798 36.3358 195.602 36.3358 196.397 36.2738C199.774 36.4478 205.579 36.4038 206.746 34.1738C208.046 31.7058 207.004 30.3848 206.469 29.9148ZM189.501 36.0858C189.501 36.0858 189.756 36.1158 190.191 36.1538C190.719 38.2449 191.067 40.3774 191.231 42.5278C190.808 40.3422 190.23 38.1894 189.501 36.0858ZM194.401 13.3298C194.706 13.4049 195.018 13.4432 195.332 13.4438H195.367L195.394 13.6988C195.048 13.6202 194.714 13.4961 194.4 13.3298H194.401ZM192.281 50.7538H192.194V50.7058H191.168V49.4678H192.281V50.7538Z" fill="url(#paint6_linear)"/>
<path d="M192.007 48.2398H189.113V51.4268H192.007V48.2398Z" fill="#985454"/>
<path d="M195.865 48.2398H192.971V51.4268H195.865V48.2398Z" fill="#985454"/>
<path d="M195.613 13.4918C197.744 13.4918 199.471 11.2094 199.471 8.39382C199.471 5.57827 197.744 3.29582 195.613 3.29582C193.482 3.29582 191.755 5.57827 191.755 8.39382C191.755 11.2094 193.482 13.4918 195.613 13.4918Z" fill="#F8C198"/>
<path d="M199.231 15.7238H195.856L195.373 10.6238H198.267L199.231 15.7238Z" fill="#F8C198"/>
<path d="M201.169 29.7568C201.169 29.7568 203.096 31.0298 201.652 34.2168C200.208 37.4038 190.562 36.1168 190.562 36.1168C190.562 36.1168 192.973 43.7648 192.49 49.5008H188.632C188.632 49.5008 187.475 36.3748 186.52 35.1118C185.29 33.4828 186.22 30.3798 188.632 31.0178C191.044 31.6558 201.169 29.7568 201.169 29.7568Z" fill="#263238"/>
<g opacity="0.2">
<path opacity="0.2" d="M191.35 36.0168C192.601 36.1667 193.858 36.2501 195.118 36.2668C193.869 36.2793 192.62 36.2259 191.377 36.1068L191.35 36.0168Z" fill="white"/>
<path opacity="0.2" d="M190.508 31.0408C194.086 30.7856 197.645 30.3188 201.168 29.6428C201.219 29.6786 201.269 29.7177 201.315 29.7598C199.35 30.1128 193.402 31.1308 190.508 31.0408Z" fill="white"/>
<path opacity="0.2" d="M188.418 30.8698C186.789 31.1988 186.268 33.6358 187.31 35.0098C188.263 36.2718 189.422 49.3988 189.422 49.3988H188.632C188.632 49.3988 187.476 36.2728 186.52 35.0098C185.328 33.4358 186.167 30.4608 188.418 30.8698Z" fill="white"/>
</g>
<path d="M192.971 50.7948C192.971 50.7948 185.258 50.7948 185.258 52.0628C185.26 52.4326 185.349 52.7967 185.516 53.1264C185.683 53.4561 185.925 53.7425 186.222 53.9628H192.971V50.7948Z" fill="#263238"/>
<path opacity="0.2" d="M192.894 50.7398V51.0898C191.55 51.1038 185.442 51.2278 185.442 52.3628C185.439 52.8064 185.564 53.2414 185.8 53.6168C185.398 53.181 185.175 52.6097 185.175 52.0168C185.182 50.7398 192.894 50.7398 192.894 50.7398Z" fill="white"/>
<path d="M205.025 29.7568C205.025 29.7568 206.952 31.0298 205.508 34.2168C204.064 37.4038 194.418 36.1168 194.418 36.1168C194.418 36.1168 196.829 43.7648 196.346 49.5008H192.491C192.491 49.5008 192.008 36.1168 190.563 34.8408C189.118 33.5648 190.08 30.3808 192.491 31.0188C194.902 31.6568 205.025 29.7568 205.025 29.7568Z" fill="#263238"/>
<path d="M196.829 50.7948C196.829 50.7948 189.113 50.7948 189.113 52.0678C189.116 52.4376 189.204 52.8017 189.371 53.1314C189.538 53.4611 189.78 53.7475 190.077 53.9678H196.826L196.829 50.7948Z" fill="#263238"/>
<path d="M197.586 13.8268H198.759C199.22 13.8268 199.552 15.3608 199.88 15.7898C200.629 16.7668 200.132 18.4798 202.133 23.5948C204.014 28.4028 204.65 27.9818 205.288 29.6648C205.926 31.3478 193.945 31.2648 193.945 31.2648C194.288 29.4245 194.45 27.5548 194.428 25.6828C194.157 20.8318 193.209 19.1478 194.482 17.4678C194.472 17.4698 195.843 13.8268 197.586 13.8268Z" fill="#FCCC63"/>
<path opacity="0.2" d="M195.613 3.64583C195.747 3.64579 195.88 3.65481 196.013 3.67283C194.069 3.94383 192.552 6.11583 192.552 8.74383C192.552 11.3718 194.07 13.5548 196.013 13.8148C195.88 13.8329 195.747 13.8419 195.613 13.8418C193.482 13.8418 191.755 11.5588 191.755 8.74183C191.755 5.92483 193.484 3.64583 195.613 3.64583Z" fill="white"/>
<path d="M191.409 2.81783C191.794 2.39194 192.297 2.08899 192.853 1.94682L195.188 1.13283C195.86 0.84892 196.575 0.679902 197.303 0.632829C197.749 0.632316 198.19 0.724603 198.598 0.903825C198.774 0.80863 198.955 0.723496 199.141 0.648828C199.705 0.369354 200.308 0.177163 200.93 0.0788278C201.245 0.0337632 201.567 0.0539109 201.874 0.138024C202.181 0.222138 202.468 0.368424 202.716 0.567826C203.031 0.861025 203.285 1.21489 203.46 1.60821C203.635 2.00153 203.73 2.42622 203.737 2.85683C203.787 3.7412 203.49 4.61017 202.909 5.27882C202.559 5.63401 202.115 5.88321 201.63 5.99783C201.707 6.96297 201.616 7.93419 201.359 8.86782C201.117 9.67984 200.771 10.4573 200.33 11.1808C200.094 11.6476 199.749 12.0502 199.323 12.3538C199.125 12.4854 198.885 12.5373 198.65 12.4991C198.415 12.4609 198.204 12.3354 198.058 12.1478C197.838 11.7812 197.709 11.3668 197.683 10.9398C197.439 9.21883 197.194 7.23982 196.054 6.32482C195.383 5.87421 194.567 5.6912 193.768 5.81182C193.041 5.80403 192.331 5.58933 191.721 5.19283C191.518 5.08293 191.343 4.92672 191.211 4.73682C191.06 4.43075 190.999 4.08828 191.034 3.7488C191.069 3.40933 191.199 3.08663 191.409 2.81783Z" fill="#FF5252"/>
<g opacity="0.2">
<path opacity="0.2" d="M202.714 1.25982C202.467 1.06239 202.182 0.917457 201.877 0.833894C201.571 0.750331 201.252 0.72989 200.939 0.77382C200.317 0.872155 199.714 1.06435 199.15 1.34382C198.964 1.41848 198.783 1.50362 198.607 1.59882C198.199 1.4196 197.758 1.32731 197.312 1.32782C196.584 1.37491 195.869 1.54393 195.197 1.82782L192.862 2.64182C192.306 2.7853 191.804 3.08803 191.418 3.51282C191.239 3.75296 191.118 4.0317 191.065 4.32682C191.017 4.06311 191.023 3.79227 191.084 3.53112C191.144 3.26998 191.258 3.02412 191.418 2.80882C191.803 2.38293 192.306 2.07999 192.862 1.93782L195.197 1.12382C195.869 0.839928 196.584 0.670911 197.312 0.623819C197.758 0.623277 198.199 0.715573 198.607 0.894823C198.783 0.799618 198.964 0.714484 199.15 0.639825C199.714 0.360352 200.317 0.168153 200.939 0.069818C201.253 0.0277576 201.573 0.0504232 201.878 0.136407C202.183 0.222391 202.468 0.369878 202.714 0.569818C203.029 0.863017 203.282 1.21688 203.458 1.6102C203.633 2.00352 203.728 2.42821 203.735 2.85882C203.74 3.02572 203.734 3.19278 203.716 3.35882C203.663 2.55678 203.305 1.80537 202.716 1.25882L202.714 1.25982Z" fill="white"/>
<path opacity="0.2" d="M201.651 6.67882V6.94982C201.653 6.85927 201.648 6.76867 201.637 6.67882H201.651Z" fill="white"/>
</g>
<path opacity="0.2" d="M194.418 25.7468C194.147 20.8958 193.199 19.2118 194.472 17.5318C194.472 17.5318 195.829 13.8888 197.586 13.8888H198.759C198.897 13.8888 199.03 14.0298 199.144 14.2368H198.372C196.624 14.2368 195.258 17.8798 195.258 17.8798C193.985 19.5598 194.94 21.2438 195.204 26.0948C195.233 27.848 195.092 29.5999 194.783 31.3258H193.941C194.28 29.486 194.44 27.6175 194.418 25.7468Z" fill="white"/>
<path d="M195.795 22.5928H200.008V18.7618H195.795V22.5928Z" fill="#FCCC63"/>
<g opacity="0.2">
<path opacity="0.2" d="M194.363 31.0408C197.941 30.785 201.501 30.3175 205.024 29.6408C205.075 29.6766 205.125 29.7157 205.171 29.7578C203.205 30.1128 197.246 31.1308 194.363 31.0408Z" fill="white"/>
<path opacity="0.2" d="M192.286 30.8728C191.905 30.9943 191.562 31.212 191.289 31.5048C191.017 31.7976 190.824 32.1557 190.73 32.5445C190.636 32.9333 190.644 33.3397 190.753 33.7246C190.862 34.1095 191.068 34.4598 191.352 34.7418C192.799 36.0148 193.28 49.4018 193.28 49.4018H192.49C192.49 49.4018 192.007 36.0178 190.562 34.7418C189.156 33.5028 190.025 30.4628 192.286 30.8728Z" fill="white"/>
<path opacity="0.2" d="M195.208 36.0168C196.459 36.1667 197.716 36.2502 198.976 36.2668C197.727 36.2793 196.478 36.2259 195.235 36.1068L195.208 36.0168Z" fill="white"/>
</g>
<path d="M199.722 21.4748V27.5698C199.722 29.7798 198.335 31.5468 196.665 31.4598C194.629 31.3538 192.275 31.3158 192.009 31.6688C191.786 31.9688 191.252 32.5318 190.744 33.0588C190.236 33.5858 189.487 33.0588 189.544 32.1848C189.609 31.1618 189.854 30.0698 190.565 29.7578C191.418 29.4712 192.306 29.3029 193.204 29.2578C194.98 29.1008 196.35 27.1378 196.35 24.7868V21.4748H199.722Z" fill="#F8C198"/>
<path opacity="0.2" d="M189.539 32.1878C189.604 31.1648 189.849 30.0728 190.56 29.7608C191.413 29.4742 192.301 29.3059 193.199 29.2608C194.975 29.1038 196.345 27.1408 196.345 24.7898V21.4748H199.72V21.8218H196.877V25.1368C196.877 27.4878 195.503 29.4508 193.73 29.6078C192.832 29.6526 191.944 29.8209 191.091 30.1078C190.377 30.4228 190.133 31.5078 190.07 32.5348C190.049 32.792 190.112 33.0491 190.249 33.2678C190.014 33.215 189.808 33.0728 189.676 32.8713C189.543 32.6698 189.494 32.4248 189.539 32.1878Z" fill="white"/>
<path opacity="0.2" d="M196.848 50.7398V51.0898C195.504 51.1038 189.396 51.2278 189.396 52.3628C189.394 52.8077 189.519 53.2438 189.757 53.6198C189.355 53.1838 189.133 52.6126 189.133 52.0198C189.132 50.7398 196.848 50.7398 196.848 50.7398Z" fill="white"/>
<path d="M81.7717 107.502L41.18 107.644L41.3414 153.894L81.9332 153.752L81.7717 107.502Z" fill="url(#paint7_linear)"/>
<path d="M81.2998 108.195L41.658 108.334L41.8128 152.667L81.4545 152.528L81.2998 108.195Z" fill="white"/>
<path opacity="0.2" d="M79.3598 109.237L43.464 109.362L43.5756 141.345L79.4714 141.219L79.3598 109.237Z" fill="#00CE7D"/>
<path d="M135.71 107.501L95.118 107.643L95.2794 153.893L135.871 153.751L135.71 107.501Z" fill="url(#paint8_linear)"/>
<path d="M135.24 108.194L95.598 108.333L95.7528 152.666L135.395 152.527L135.24 108.194Z" fill="white"/>
<path opacity="0.2" d="M133.3 109.236L97.404 109.361L97.5156 141.344L133.411 141.218L133.3 109.236Z" fill="#00CE7D"/>
<path d="M189.653 107.5L149.061 107.642L149.222 153.892L189.814 153.75L189.653 107.5Z" fill="url(#paint9_linear)"/>
<path d="M189.181 108.193L149.539 108.332L149.694 152.665L189.336 152.526L189.181 108.193Z" fill="white"/>
<path opacity="0.2" d="M187.238 109.235L151.342 109.36L151.454 141.343L187.349 141.217L187.238 109.235Z" fill="#00CE7D"/>
<path d="M81.5808 51.1561L40.989 51.2978L41.1505 97.5475L81.7422 97.4058L81.5808 51.1561Z" fill="url(#paint10_linear)"/>
<path d="M81.1078 51.8474L41.466 51.9858L41.6208 96.3186L81.2625 96.1802L81.1078 51.8474Z" fill="white"/>
<path opacity="0.2" d="M79.1688 52.8885L43.273 53.0138L43.3847 84.9966L79.2804 84.8713L79.1688 52.8885Z" fill="#00CE7D"/>
<path d="M189.089 50.1891L148.497 50.3308L148.658 96.5805L189.25 96.4389L189.089 50.1891Z" fill="url(#paint11_linear)"/>
<path d="M188.617 50.8805L148.975 51.0188L149.13 95.3516L188.771 95.2132L188.617 50.8805Z" fill="white"/>
<path opacity="0.2" d="M186.674 51.9245L150.778 52.0498L150.89 84.0326L186.785 83.9073L186.674 51.9245Z" fill="#00CE7D"/>
<path d="M135.43 50.7511L94.838 50.8928L94.9995 97.1425L135.591 97.0008L135.43 50.7511Z" fill="url(#paint12_linear)"/>
<path d="M134.958 51.4424L95.316 51.5808L95.4707 95.9136L135.112 95.7752L134.958 51.4424Z" fill="white"/>
<path opacity="0.2" d="M133.018 52.4865L97.122 52.6118L97.2337 84.5946L133.129 84.4693L133.018 52.4865Z" fill="#00CE7D"/>
<path d="M161.661 116.505H72.424V197.6H161.661V116.505Z" fill="url(#paint13_linear)"/>
<path d="M160.092 119.008H74.743V194.874H160.092V119.008Z" fill="white"/>
<path d="M80.433 127.861C82.2953 127.861 83.805 126.351 83.805 124.489C83.805 122.627 82.2953 121.117 80.433 121.117C78.5707 121.117 77.061 122.627 77.061 124.489C77.061 126.351 78.5707 127.861 80.433 127.861Z" fill="url(#paint14_linear)"/>
<path d="M80.433 127.228C81.9457 127.228 83.172 126.002 83.172 124.489C83.172 122.976 81.9457 121.75 80.433 121.75C78.9203 121.75 77.694 122.976 77.694 124.489C77.694 126.002 78.9203 127.228 80.433 127.228Z" fill="#FF9800"/>
<path d="M156.299 121.117H138.807V127.861H156.299V121.117Z" fill="url(#paint15_linear)"/>
<path d="M155.878 121.747H139.44V127.226H155.878V121.747Z" fill="#F5F5F5"/>
<path d="M160.094 138.818H74.533V175.064H160.094V138.818Z" fill="#00CE7D"/>
<path d="M117.311 179.491C129.764 179.491 139.86 169.395 139.86 156.942C139.86 144.488 129.764 134.393 117.311 134.393C104.858 134.393 94.762 144.488 94.762 156.942C94.762 169.395 104.858 179.491 117.311 179.491Z" fill="url(#paint16_linear)"/>
<path d="M117.311 178.859C129.415 178.859 139.228 169.046 139.228 156.942C139.228 144.837 129.415 135.025 117.311 135.025C105.207 135.025 95.394 144.837 95.394 156.942C95.394 169.046 105.207 178.859 117.311 178.859Z" fill="white"/>
<path d="M117.311 172.957C126.156 172.957 133.326 165.787 133.326 156.942C133.326 148.097 126.156 140.927 117.311 140.927C108.466 140.927 101.296 148.097 101.296 156.942C101.296 165.787 108.466 172.957 117.311 172.957Z" fill="url(#paint17_linear)"/>
<path d="M117.311 172.536C125.923 172.536 132.905 165.554 132.905 156.942C132.905 148.33 125.923 141.348 117.311 141.348C108.699 141.348 101.717 148.33 101.717 156.942C101.717 165.554 108.699 172.536 117.311 172.536Z" fill="#00CE7D"/>
<path d="M117.311 166.634C122.431 166.634 126.582 162.483 126.582 157.363C126.582 152.243 122.431 148.092 117.311 148.092C112.191 148.092 108.04 152.243 108.04 157.363C108.04 162.483 112.191 166.634 117.311 166.634Z" fill="#00CE7D"/>
<path opacity="0.2" d="M117.311 166.634C122.431 166.634 126.582 162.483 126.582 157.363C126.582 152.243 122.431 148.092 117.311 148.092C112.191 148.092 108.04 152.243 108.04 157.363C108.04 162.483 112.191 166.634 117.311 166.634Z" fill="black"/>
<defs>
<linearGradient id="paint0_linear" x1="115.398" y1="162.901" x2="115.398" y2="34.9838" gradientUnits="userSpaceOnUse">
<stop stop-color="#808080" stop-opacity="0.251"/>
<stop offset="0.54" stop-color="#808080" stop-opacity="0.122"/>
<stop offset="1" stop-color="#808080" stop-opacity="0.102"/>
</linearGradient>
<linearGradient id="paint1_linear" x1="0.0285645" y1="53.2048" x2="10.5632" y2="46.4274" gradientUnits="userSpaceOnUse">
<stop stop-color="#808080" stop-opacity="0.251"/>
<stop offset="0.54" stop-color="#808080" stop-opacity="0.122"/>
<stop offset="1" stop-color="#808080" stop-opacity="0.102"/>
</linearGradient>
<linearGradient id="paint2_linear" x1="107.049" y1="28.3774" x2="115.992" y2="17.4701" gradientUnits="userSpaceOnUse">
<stop stop-color="#808080" stop-opacity="0.251"/>
<stop offset="0.54" stop-color="#808080" stop-opacity="0.122"/>
<stop offset="1" stop-color="#808080" stop-opacity="0.102"/>
</linearGradient>
<linearGradient id="paint3_linear" x1="21.494" y1="29.7244" x2="34.26" y2="17.9605" gradientUnits="userSpaceOnUse">
<stop stop-color="#808080" stop-opacity="0.251"/>
<stop offset="0.54" stop-color="#808080" stop-opacity="0.122"/>
<stop offset="1" stop-color="#808080" stop-opacity="0.102"/>
</linearGradient>
<linearGradient id="paint4_linear" x1="64.8076" y1="22.9238" x2="64.8076" y2="11.7954" gradientUnits="userSpaceOnUse">
<stop stop-color="#808080" stop-opacity="0.251"/>
<stop offset="0.54" stop-color="#808080" stop-opacity="0.122"/>
<stop offset="1" stop-color="#808080" stop-opacity="0.102"/>
</linearGradient>
<linearGradient id="paint5_linear" x1="126.036" y1="5.69992" x2="136.717" y2="5.69992" gradientUnits="userSpaceOnUse">
<stop stop-color="#808080" stop-opacity="0.251"/>
<stop offset="0.54" stop-color="#808080" stop-opacity="0.122"/>
<stop offset="1" stop-color="#808080" stop-opacity="0.102"/>
</linearGradient>
<linearGradient id="paint6_linear" x1="183.286" y1="53.9408" x2="223.45" y2="36.0059" gradientUnits="userSpaceOnUse">
<stop stop-color="#808080" stop-opacity="0.251"/>
<stop offset="0.54" stop-color="#808080" stop-opacity="0.122"/>
<stop offset="1" stop-color="#808080" stop-opacity="0.102"/>
</linearGradient>
<linearGradient id="paint7_linear" x1="59.2392" y1="94.7695" x2="59.0778" y2="48.5197" gradientUnits="userSpaceOnUse">
<stop stop-color="#808080" stop-opacity="0.251"/>
<stop offset="0.54" stop-color="#808080" stop-opacity="0.122"/>
<stop offset="1" stop-color="#808080" stop-opacity="0.102"/>
</linearGradient>
<linearGradient id="paint8_linear" x1="113.178" y1="94.9535" x2="113.016" y2="48.7037" gradientUnits="userSpaceOnUse">
<stop stop-color="#808080" stop-opacity="0.251"/>
<stop offset="0.54" stop-color="#808080" stop-opacity="0.122"/>
<stop offset="1" stop-color="#808080" stop-opacity="0.102"/>
</linearGradient>
<linearGradient id="paint9_linear" x1="167.122" y1="95.1375" x2="166.96" y2="48.8878" gradientUnits="userSpaceOnUse">
<stop stop-color="#808080" stop-opacity="0.251"/>
<stop offset="0.54" stop-color="#808080" stop-opacity="0.122"/>
<stop offset="1" stop-color="#808080" stop-opacity="0.102"/>
</linearGradient>
<linearGradient id="paint10_linear" x1="59.2512" y1="38.4227" x2="59.0897" y2="-7.82697" gradientUnits="userSpaceOnUse">
<stop stop-color="#808080" stop-opacity="0.251"/>
<stop offset="0.54" stop-color="#808080" stop-opacity="0.122"/>
<stop offset="1" stop-color="#808080" stop-opacity="0.102"/>
</linearGradient>
<linearGradient id="paint11_linear" x1="166.76" y1="37.8257" x2="166.599" y2="-8.42397" gradientUnits="userSpaceOnUse">
<stop stop-color="#808080" stop-opacity="0.251"/>
<stop offset="0.54" stop-color="#808080" stop-opacity="0.122"/>
<stop offset="1" stop-color="#808080" stop-opacity="0.102"/>
</linearGradient>
<linearGradient id="paint12_linear" x1="113.101" y1="38.2027" x2="112.939" y2="-8.04697" gradientUnits="userSpaceOnUse">
<stop stop-color="#808080" stop-opacity="0.251"/>
<stop offset="0.54" stop-color="#808080" stop-opacity="0.122"/>
<stop offset="1" stop-color="#808080" stop-opacity="0.102"/>
</linearGradient>
<linearGradient id="paint13_linear" x1="117.043" y1="197.6" x2="117.043" y2="116.505" gradientUnits="userSpaceOnUse">
<stop stop-color="#808080" stop-opacity="0.251"/>
<stop offset="0.54" stop-color="#808080" stop-opacity="0.122"/>
<stop offset="1" stop-color="#808080" stop-opacity="0.102"/>
</linearGradient>
<linearGradient id="paint14_linear" x1="77.061" y1="127.861" x2="83.805" y2="121.117" gradientUnits="userSpaceOnUse">
<stop stop-color="#808080" stop-opacity="0.251"/>
<stop offset="0.54" stop-color="#808080" stop-opacity="0.122"/>
<stop offset="1" stop-color="#808080" stop-opacity="0.102"/>
</linearGradient>
<linearGradient id="paint15_linear" x1="138.807" y1="127.861" x2="143.334" y2="116.118" gradientUnits="userSpaceOnUse">
<stop stop-color="#808080" stop-opacity="0.251"/>
<stop offset="0.54" stop-color="#808080" stop-opacity="0.122"/>
<stop offset="1" stop-color="#808080" stop-opacity="0.102"/>
</linearGradient>
<linearGradient id="paint16_linear" x1="117.311" y1="179.491" x2="117.311" y2="134.393" gradientUnits="userSpaceOnUse">
<stop stop-color="#808080" stop-opacity="0.251"/>
<stop offset="0.54" stop-color="#808080" stop-opacity="0.122"/>
<stop offset="1" stop-color="#808080" stop-opacity="0.102"/>
</linearGradient>
<linearGradient id="paint17_linear" x1="101.296" y1="172.957" x2="133.326" y2="140.927" gradientUnits="userSpaceOnUse">
<stop stop-color="#808080" stop-opacity="0.251"/>
<stop offset="0.54" stop-color="#808080" stop-opacity="0.122"/>
<stop offset="1" stop-color="#808080" stop-opacity="0.102"/>
</linearGradient>
</defs>
</svg>
