<svg width="221" height="174" viewBox="0 0 221 174" fill="none" xmlns="http://www.w3.org/2000/svg">
<path d="M36.541 96.789C37.2085 96.3294 37.9749 96.0335 38.7781 95.9254C39.5813 95.8174 40.3987 95.9001 41.1639 96.167C41.1639 96.167 40.5069 97.567 37.5779 97.547L36.541 96.789Z" fill="#00CE7D"/>
<path d="M36.258 96.884C36.0965 97.6789 36.1249 98.5007 36.3407 99.2826C36.5565 100.065 36.9537 100.784 37.5 101.384C37.5 101.384 38.525 100.229 37.36 97.543L36.258 96.884Z" fill="#00CE7D"/>
<path d="M33.254 94.402C33.254 94.402 33.337 92.102 38.554 92.662C38.5327 93.1671 38.3573 93.6537 38.0515 94.0562C37.7456 94.4588 37.3239 94.7581 36.843 94.914C36.2714 95.2342 35.6104 95.3575 34.9619 95.265C34.3133 95.1725 33.7132 94.8692 33.254 94.402Z" fill="#00CE7D"/>
<path d="M32.933 94.397C32.933 94.397 30.766 95.186 32.909 99.975C33.383 99.799 33.7918 99.4822 34.0805 99.0671C34.3692 98.6521 34.5239 98.1586 34.524 97.653C34.6501 97.011 34.5629 96.3454 34.2756 95.7576C33.9884 95.1698 33.5169 94.692 32.933 94.397Z" fill="#00CE7D"/>
<path d="M29.872 91.252C29.872 91.252 29.434 87.484 34.745 87.668C34.745 87.668 35.251 91.075 30.845 92.124L29.872 91.252Z" fill="#00CE7D"/>
<path d="M26.206 87.121C26.206 87.121 26.769 82.812 32.121 83.883C32.121 83.883 32.283 87.583 27.121 88.109L26.206 87.121Z" fill="#00CE7D"/>
<path d="M23.479 82.807C23.479 82.807 24.535 78.581 29.833 79.637C29.833 79.637 28.733 83.437 23.858 83.565L23.479 82.807Z" fill="#00CE7D"/>
<path d="M20.882 78.594C20.882 78.594 21.905 74.212 27.016 75.325C27.016 75.325 25.482 79.503 21.239 79.319L20.882 78.594Z" fill="#00CE7D"/>
<path d="M19.158 74.563C19.158 74.563 19.8699 69.233 24.6349 70.223C24.6349 70.223 23.448 75.093 19.535 75.323L19.158 74.563Z" fill="#00CE7D"/>
<path d="M17.4999 69.675C17.4999 69.675 18.3919 64.296 23.2289 65.666C23.2289 65.666 21.5459 70.782 17.8609 70.4L17.4999 69.675Z" fill="#00CE7D"/>
<path d="M16.413 65.116C16.413 65.116 17.947 59.716 21.654 59.716C21.654 59.716 20.088 65.416 16.764 66.175L16.413 65.116Z" fill="#00CE7D"/>
<path d="M15.664 60.642C15.664 60.642 17.314 54.142 20.342 54.525C20.342 54.525 19.218 59.485 15.809 61.639L15.664 60.642Z" fill="#00CE7D"/>
<path d="M15.131 55.292C15.131 55.292 16.702 49.872 19.664 49.543C19.664 49.543 18.656 54.856 15.249 56.681L15.131 55.292Z" fill="#00CE7D"/>
<path d="M14.579 50.315C14.579 50.315 16.59 44.871 18.549 44.673C18.549 44.673 17.789 49.986 14.809 51.187L14.579 50.315Z" fill="#00CE7D"/>
<path d="M14.1559 45.674C14.1559 45.674 15.2949 39.8 17.2359 39.244C17.2359 39.244 17.151 44.014 14.368 46.101L14.1559 45.674Z" fill="#00CE7D"/>
<path d="M13.186 39.618C13.186 39.618 14.441 34.925 16.001 34.156C16.001 34.156 15.896 39.633 13.591 40.729L13.186 39.618Z" fill="#00CE7D"/>
<path d="M12.419 35.644L11.819 27.476C11.819 27.476 15.019 33.536 12.695 37.076L12.419 35.644Z" fill="#00CE7D"/>
<path d="M9.812 27.604C9.812 27.604 7.448 21.713 6.922 21.404C6.922 21.404 11.26 25.129 11.041 30.119L9.812 27.604Z" fill="#00CE7D"/>
<path d="M29.727 91.231C29.727 91.231 25.948 90.883 26.265 96.189C26.265 96.189 29.683 96.612 30.623 92.177L29.727 91.231Z" fill="#00CE7D"/>
<path d="M26.024 86.985C26.024 86.985 21.682 87.136 22.243 92.559C22.243 92.559 25.913 93.072 26.923 87.978L26.024 86.985Z" fill="#00CE7D"/>
<path d="M23.447 83.162C23.447 83.162 19.433 81.462 17.093 86.332C17.093 86.332 20.793 87.732 23.823 83.922L23.447 83.162Z" fill="#00CE7D"/>
<path d="M20.795 78.638C20.795 78.638 16.685 76.824 14.495 81.578C14.495 81.578 18.756 82.864 21.16 79.361L20.795 78.638Z" fill="#00CE7D"/>
<path d="M19.213 74.673C19.213 74.673 15.186 71.111 12.231 74.984C12.231 74.984 16.317 77.884 19.424 75.492L19.213 74.673Z" fill="#00CE7D"/>
<path d="M17.716 69.539C17.716 69.539 13.663 65.893 10.738 69.977C10.738 69.977 15.245 72.924 17.887 70.325L17.716 69.539Z" fill="#00CE7D"/>
<path d="M16.808 64.943C16.808 64.943 13.616 60.32 10.108 61.512C10.108 61.512 13.425 66.412 16.814 66.058L16.808 64.943Z" fill="#00CE7D"/>
<path d="M15.7509 60.609C15.7509 60.609 12.484 54.755 9.65796 55.901C9.65796 55.901 12.02 60.401 15.865 61.608L15.7509 60.609Z" fill="#00CE7D"/>
<path d="M15.326 54.975C15.326 54.975 12.026 50.396 9.12598 51.082C9.12598 51.082 11.858 55.749 15.679 56.325L15.326 54.975Z" fill="#00CE7D"/>
<path d="M14.906 50.196C14.906 50.196 12.288 45.017 10.32 45.045C10.32 45.045 11.681 50.237 14.776 51.087L14.906 50.196Z" fill="#00CE7D"/>
<path d="M14.248 45.555C14.248 45.555 11.356 40.319 9.336 40.384C9.336 40.384 10.887 44.897 14.176 46.028L14.248 45.555Z" fill="#00CE7D"/>
<path d="M13.629 39.92C13.629 39.92 11.449 35.578 9.76599 35.142C9.76599 35.142 10.978 40.488 13.451 41.101L13.629 39.92Z" fill="#00CE7D"/>
<path d="M12.174 35.499L7.422 28.83C7.422 28.83 8.83101 35.539 12.88 36.779L12.174 35.499Z" fill="#00CE7D"/>
<path d="M8.80595 28.193C8.80595 28.193 3.45795 24.793 3.23895 24.214C3.23895 24.214 6.08696 29.161 11.052 29.862L8.80595 28.193Z" fill="#00CE7D"/>
<path d="M8.42897 26.584C8.42897 26.584 2.21597 21.052 0.685974 21.118C2.32756 21.2465 3.91042 21.786 5.28873 22.6869C6.66704 23.5878 7.79648 24.821 8.57298 26.273L8.42897 26.584Z" fill="#00CE7D"/>
<path d="M13.602 40.797L13.3829 40.834C11.9189 32.059 10.077 26.913 8.19696 26.339L8.26096 26.12C10.25 26.725 12.103 31.797 13.602 40.797Z" fill="#444053"/>
<path d="M16.067 61.803L15.738 61.842C15.638 61.023 15.55 60.181 15.482 59.342C14.888 52.057 14.143 45.375 13.311 40.375L13.493 40.132C14.328 45.14 15.217 52.02 15.813 59.315C15.881 60.155 15.966 60.986 16.067 61.803Z" fill="#444053"/>
<path d="M42.857 100.751C38.3277 98.696 34.189 95.8711 30.625 92.402C26.9554 88.9167 23.8613 84.8719 21.458 80.418C18.3802 74.4108 16.4152 67.8962 15.658 61.189L16.009 61.338C17.2781 72.9952 22.5428 83.8537 30.909 92.07C34.4334 95.5063 38.5274 98.3049 43.009 100.341L42.857 100.751Z" fill="#444053"/>
<g opacity="0.7">
<path opacity="0.7" d="M45.707 82.908C46.4813 82.6684 47.3012 82.6144 48.1003 82.7502C48.8994 82.8861 49.6553 83.208 50.307 83.69C50.307 83.69 49.262 84.829 46.471 83.94L45.707 82.908Z" fill="#00CE7D"/>
<path opacity="0.7" d="M45.409 82.912C45.0194 83.6226 44.8027 84.415 44.7765 85.2249C44.7503 86.0349 44.9152 86.8396 45.258 87.574C45.258 87.574 46.573 86.774 46.268 83.867L45.409 82.912Z" fill="#00CE7D"/>
<path opacity="0.7" d="M43.277 79.645C43.277 79.645 44.044 77.472 48.853 79.56C48.6831 80.0357 48.3716 80.448 47.9604 80.7413C47.5492 81.0347 47.0581 81.1951 46.553 81.201C45.9119 81.3359 45.2442 81.2568 44.6525 80.9757C44.0607 80.6947 43.5775 80.2272 43.277 79.645Z" fill="#00CE7D"/>
<path opacity="0.7" d="M42.973 79.552C42.973 79.552 40.673 79.662 41.29 84.869C41.7954 84.8426 42.2805 84.6619 42.6802 84.3513C43.0798 84.0408 43.3746 83.6152 43.525 83.132C43.8373 82.5571 43.9525 81.8955 43.8528 81.2489C43.7531 80.6022 43.444 80.0061 42.973 79.552Z" fill="#00CE7D"/>
<path opacity="0.7" d="M40.9879 75.632C40.9879 75.632 41.6879 71.908 46.7039 73.66C46.7039 73.66 46.1759 77.06 41.6539 76.754L40.9879 75.632Z" fill="#00CE7D"/>
<path opacity="0.7" d="M38.718 70.593C38.718 70.593 40.536 66.649 45.318 69.261C45.318 69.261 44.372 72.843 39.282 71.807L38.718 70.593Z" fill="#00CE7D"/>
<path opacity="0.7" d="M37.395 65.674C37.395 65.674 39.663 61.949 44.406 64.537C44.406 64.537 42.215 67.837 37.533 66.509L37.395 65.674Z" fill="#00CE7D"/>
<path opacity="0.7" d="M36.1699 60.878C36.1699 60.878 38.4489 57.004 43.0029 59.583C43.0029 59.583 40.2969 63.115 36.3029 61.677L36.1699 60.878Z" fill="#00CE7D"/>
<path opacity="0.7" d="M35.723 56.517C35.723 56.517 37.988 51.64 42.248 54.006C42.248 54.006 39.665 58.3 35.859 57.351L35.723 56.517Z" fill="#00CE7D"/>
<path opacity="0.7" d="M35.5959 51.357C35.5959 51.357 38.048 46.487 42.256 49.234C42.256 49.234 39.1299 53.616 35.7249 52.157L35.5959 51.357Z" fill="#00CE7D"/>
<path opacity="0.7" d="M35.918 46.675C35.918 46.675 38.985 41.975 42.526 43.075C42.526 43.075 39.334 48.055 35.936 47.788L35.918 46.675Z" fill="#00CE7D"/>
<path opacity="0.7" d="M36.541 42.186C36.541 42.186 40.046 36.474 42.827 37.738C42.827 37.738 40.277 42.138 36.384 43.18L36.541 42.186Z" fill="#00CE7D"/>
<path opacity="0.7" d="M37.612 36.922C37.612 36.922 40.727 32.214 43.65 32.781C43.65 32.781 41.109 37.555 37.314 38.281L37.612 36.922Z" fill="#00CE7D"/>
<path opacity="0.7" d="M38.5699 32.003C38.5699 32.003 42.1079 27.403 44.0359 27.803C44.0359 27.803 41.729 32.649 38.528 32.903L38.5699 32.003Z" fill="#00CE7D"/>
<path opacity="0.7" d="M39.5439 27.447C39.5439 27.447 42.379 22.189 44.399 22.224C44.399 22.224 42.8989 26.753 39.6209 27.924L39.5439 27.447Z" fill="#00CE7D"/>
<path opacity="0.7" d="M40.418 21.377C40.418 21.377 43.018 17.271 44.732 16.995C44.732 16.995 43.001 22.195 40.477 22.562L40.418 21.377Z" fill="#00CE7D"/>
<path opacity="0.7" d="M40.8689 17.354L42.7249 9.375C42.7249 9.375 43.9759 16.112 40.7029 18.795L40.8689 17.354Z" fill="#00CE7D"/>
<path opacity="0.7" d="M40.778 8.904C40.778 8.904 40.272 2.577 39.864 2.112C39.864 2.112 42.9009 6.949 41.2049 11.66L40.778 8.904Z" fill="#00CE7D"/>
<path opacity="0.7" d="M40.8539 75.573C40.8539 75.573 37.3489 74.118 36.0759 79.28C36.0759 79.28 39.2109 80.7 41.4279 76.745L40.8539 75.573Z" fill="#00CE7D"/>
<path opacity="0.7" d="M38.5819 70.418C38.5819 70.418 34.3909 69.272 33.3129 74.618C33.3129 74.618 36.6649 76.2 39.1449 71.636L38.5819 70.418Z" fill="#00CE7D"/>
<path opacity="0.7" d="M37.2639 66.003C37.2639 66.003 33.9379 63.188 30.2529 67.14C30.2529 67.14 33.3679 69.578 37.3969 66.84L37.2639 66.003Z" fill="#00CE7D"/>
<path opacity="0.7" d="M36.0759 60.895C36.0759 60.895 32.6889 57.942 29.1829 61.826C29.1829 61.826 32.8679 64.326 36.2049 61.695L36.0759 60.895Z" fill="#00CE7D"/>
<path opacity="0.7" d="M35.7449 56.641C35.7449 56.641 32.9579 52.041 28.9839 54.858C28.9839 54.858 32.023 58.845 35.701 57.487L35.7449 56.641Z" fill="#00CE7D"/>
<path opacity="0.7" d="M35.84 51.291C35.84 51.291 33.053 46.605 29.048 49.637C29.048 49.637 32.475 53.8 35.767 52.097L35.84 51.291Z" fill="#00CE7D"/>
<path opacity="0.7" d="M36.3409 46.631C36.3409 46.631 34.6689 41.27 30.9689 41.373C30.9689 41.373 32.6779 47.039 36.0189 47.709L36.3409 46.631Z" fill="#00CE7D"/>
<path opacity="0.7" d="M36.624 42.182C36.624 42.182 35.248 35.62 32.209 35.874C32.209 35.874 33.125 40.874 36.437 43.174L36.624 42.182Z" fill="#00CE7D"/>
<path opacity="0.7" d="M37.895 36.681C37.895 36.681 36.107 31.326 33.134 31.118C33.134 31.118 34.354 36.387 37.834 38.074L37.895 36.681Z" fill="#00CE7D"/>
<path opacity="0.7" d="M38.915 31.986C38.915 31.986 37.955 26.263 36.067 25.705C36.067 25.705 35.824 31.066 38.525 32.805L38.915 31.986Z" fill="#00CE7D"/>
<path opacity="0.7" d="M39.666 27.362C39.666 27.362 38.466 21.501 36.515 20.962C36.515 20.962 36.6529 25.732 39.4569 27.789L39.666 27.362Z" fill="#00CE7D"/>
<path opacity="0.7" d="M40.749 21.807C40.749 21.807 39.96 17.013 38.484 16.095C38.484 16.095 38.046 21.559 40.237 22.887L40.749 21.807Z" fill="#00CE7D"/>
<path opacity="0.7" d="M40.6789 17.135L38.1239 9.353C38.1239 9.353 37.4669 16.175 40.9719 18.566L40.6789 17.135Z" fill="#00CE7D"/>
<path opacity="0.7" d="M39.6339 9.167C39.6339 9.167 35.5339 4.32301 35.4999 3.71201C35.4999 3.71201 36.7549 9.283 41.2769 11.428L39.6339 9.167Z" fill="#00CE7D"/>
<path opacity="0.7" d="M39.7579 7.526C39.7579 7.526 35.4699 0.395 33.9919 0C35.5193 0.611201 36.8682 1.59707 37.9144 2.86672C38.9605 4.13637 39.6701 5.64894 39.9779 7.265L39.7579 7.526Z" fill="#00CE7D"/>
<path opacity="0.7" d="M40.469 22.613L40.25 22.582C41.462 13.772 41.236 8.30799 39.61 7.20199L39.735 7.01999C41.459 8.19699 41.711 13.59 40.469 22.613Z" fill="#444053"/>
<path opacity="0.7" d="M36.5679 43.426L36.2419 43.367C36.3909 42.554 36.5569 41.726 36.7419 40.904C38.3419 33.773 39.6209 27.174 40.3109 22.152L40.5589 21.972C39.8669 27.011 38.6679 33.836 37.0669 40.978C36.8819 41.783 36.7149 42.607 36.5679 43.426Z" fill="#444053"/>
<path opacity="0.7" d="M50.562 88.569C46.8484 85.2581 43.7358 81.3294 41.362 76.957C38.8958 72.5377 37.146 67.7553 36.178 62.788C35.0258 56.1371 35.0882 49.3326 36.362 42.704L36.651 42.949C34.3952 54.4581 36.1945 66.3933 41.743 76.726C44.0838 81.0581 47.1611 84.9495 50.837 88.226L50.562 88.569Z" fill="#444053"/>
</g>
<path d="M202.533 163.896C202.533 163.896 193.27 163.337 194.363 169.829C194.306 170.158 194.355 170.497 194.503 170.796C194.65 171.096 194.889 171.341 195.185 171.496C195.185 171.496 195.203 171.014 196.136 171.178C196.468 171.234 196.805 171.25 197.141 171.226C197.595 171.194 198.027 171.016 198.372 170.718C198.372 170.718 200.972 169.642 201.987 165.388C201.987 165.388 202.736 164.459 202.708 164.22L201.144 164.877C201.444 165.525 201.485 166.264 201.258 166.941C201.258 166.941 201.208 164.919 200.907 164.969C200.846 164.98 200.094 165.361 200.094 165.361C200.094 165.361 201.014 167.333 200.313 168.752C200.313 168.752 200.576 166.331 199.8 165.501L198.7 166.145C199.297 167.279 199.421 168.603 199.046 169.828C199.046 169.828 199.232 167.289 198.468 166.301L197.468 167.079C197.468 167.079 198.478 169.079 197.862 170.451C197.862 170.451 197.781 167.495 197.253 167.272C196.871 167.593 196.533 167.963 196.247 168.372C196.247 168.372 196.937 169.822 196.51 170.589C196.51 170.589 196.247 168.617 196.03 168.617C195.575 169.28 195.249 170.024 195.07 170.808C195.112 169.982 195.371 169.181 195.819 168.486C195.318 168.58 194.855 168.819 194.489 169.174C194.489 169.174 194.625 168.252 196.023 168.174C196.286 167.791 196.591 167.439 196.934 167.125C196.173 167.061 195.406 167.15 194.68 167.386C195.018 167.09 195.429 166.89 195.871 166.806C196.312 166.723 196.768 166.759 197.191 166.911L198.175 166.111C197.303 165.977 196.415 165.986 195.546 166.137C195.546 166.137 196.446 165.368 198.44 165.929L199.511 165.289C198.687 165.108 197.843 165.034 197 165.07C197.913 164.726 198.924 164.741 199.826 165.114L200.593 164.77C200.593 164.77 199.438 164.551 199.101 164.507C198.764 164.463 198.746 164.378 198.746 164.378C199.476 164.256 200.226 164.34 200.911 164.619C201.472 164.428 202.015 164.186 202.533 163.896Z" fill="#00CE7D"/>
<path opacity="0.1" d="M196.154 173.171C199.774 173.171 202.709 172.674 202.709 172.062C202.709 171.45 199.774 170.953 196.154 170.953C192.534 170.953 189.599 171.45 189.599 172.062C189.599 172.674 192.534 173.171 196.154 173.171Z" fill="#00CE7D"/>
<path d="M220.302 146.792C220.302 146.792 215.081 146.479 215.702 150.138C215.67 150.323 215.697 150.514 215.78 150.683C215.863 150.852 215.998 150.99 216.164 151.078C216.164 151.078 216.175 150.806 216.701 150.898C216.888 150.93 217.079 150.94 217.268 150.926C217.524 150.909 217.768 150.808 217.961 150.639C218.507 150.326 218.974 149.892 219.328 149.371C219.681 148.85 219.911 148.256 220.001 147.633C220.001 147.633 220.424 147.109 220.406 146.976L219.53 147.353C219.698 147.719 219.721 148.134 219.593 148.516C219.593 148.516 219.565 147.375 219.393 147.403C219.358 147.403 218.935 147.622 218.935 147.622C219.218 148.221 219.264 148.904 219.062 149.535C219.062 149.535 219.211 148.17 218.773 147.703L218.153 148.065C218.489 148.705 218.559 149.451 218.348 150.142C218.416 149.462 218.303 148.776 218.022 148.153L217.461 148.591C217.765 149.176 217.843 149.852 217.68 150.491C217.68 150.491 217.634 148.826 217.336 148.699C217.123 148.879 216.933 149.085 216.769 149.31C216.769 149.31 217.159 150.129 216.918 150.561C216.918 150.561 216.769 149.45 216.649 149.446C216.394 149.822 216.21 150.243 216.108 150.686C216.131 150.218 216.277 149.765 216.531 149.371C216.248 149.424 215.987 149.559 215.78 149.759C215.78 149.759 215.857 149.24 216.656 149.194C216.804 148.978 216.976 148.779 217.169 148.602C216.74 148.566 216.308 148.616 215.898 148.749C216.089 148.583 216.321 148.471 216.569 148.423C216.818 148.376 217.074 148.396 217.313 148.48L217.87 148.029C217.378 147.953 216.877 147.958 216.387 148.044C216.63 147.896 216.905 147.808 217.189 147.787C217.472 147.767 217.757 147.814 218.019 147.926L218.619 147.564C218.154 147.462 217.678 147.421 217.202 147.441C217.717 147.248 218.286 147.257 218.795 147.467L219.233 147.267C219.233 147.267 218.576 147.14 218.392 147.12C218.208 147.1 218.192 147.045 218.192 147.045C218.604 146.976 219.028 147.024 219.415 147.181C219.722 147.079 220.019 146.949 220.302 146.792Z" fill="#00CE7D"/>
<path opacity="0.1" d="M216.706 152.021C218.747 152.021 220.402 151.742 220.402 151.397C220.402 151.052 218.747 150.773 216.706 150.773C214.665 150.773 213.01 151.052 213.01 151.397C213.01 151.742 214.665 152.021 216.706 152.021Z" fill="#00CE7D"/>
<path d="M189.478 149.97C189.478 149.97 183.173 149.589 183.918 154.008C183.879 154.232 183.913 154.462 184.013 154.666C184.114 154.87 184.276 155.037 184.477 155.143C184.477 155.143 184.477 154.817 185.123 154.924C185.35 154.962 185.58 154.974 185.809 154.959C186.118 154.937 186.411 154.815 186.646 154.613C186.646 154.613 188.418 153.881 189.109 150.983C189.109 150.983 189.62 150.352 189.598 150.19L188.535 150.643C188.739 151.085 188.767 151.588 188.612 152.05C188.612 152.05 188.579 150.672 188.373 150.705C188.331 150.705 187.821 150.97 187.821 150.97C188.163 151.692 188.218 152.518 187.974 153.279C187.974 153.279 188.154 151.631 187.626 151.066L186.877 151.504C187.283 152.277 187.367 153.179 187.111 154.013C187.193 153.189 187.057 152.358 186.719 151.603L186.04 152.131C186.41 152.838 186.506 153.657 186.309 154.431C186.309 154.431 186.254 152.42 185.893 152.266C185.636 152.483 185.406 152.731 185.209 153.004C185.209 153.004 185.678 153.992 185.386 154.514C185.386 154.514 185.209 153.175 185.062 153.169C184.753 153.625 184.531 154.133 184.405 154.669C184.434 154.106 184.61 153.561 184.915 153.087C184.576 153.153 184.263 153.316 184.015 153.556C184.015 153.556 184.107 152.927 185.067 152.873C185.246 152.612 185.454 152.373 185.687 152.159C185.169 152.115 184.647 152.175 184.153 152.336C184.383 152.135 184.662 151.999 184.962 151.942C185.263 151.885 185.572 151.909 185.86 152.012L186.53 151.466C185.936 151.374 185.332 151.38 184.74 151.483C185.034 151.306 185.366 151.2 185.709 151.176C186.052 151.151 186.395 151.208 186.712 151.341L187.442 150.903C186.881 150.779 186.305 150.729 185.731 150.754C186.353 150.521 187.041 150.532 187.655 150.785L188.179 150.57C188.179 150.57 187.395 150.417 187.165 150.393C186.935 150.369 186.924 150.305 186.924 150.305C187.421 150.222 187.931 150.279 188.398 150.469C188.772 150.336 189.134 150.169 189.478 149.97Z" fill="#00CE7D"/>
<path opacity="0.1" d="M185.136 156.282C187.601 156.282 189.599 155.944 189.599 155.528C189.599 155.112 187.601 154.774 185.136 154.774C182.671 154.774 180.673 155.112 180.673 155.528C180.673 155.944 182.671 156.282 185.136 156.282Z" fill="#00CE7D"/>
<path opacity="0.1" d="M136.749 152.261L114.772 160.761L82.649 173.18C81.437 170.93 79.649 167.852 77.437 164.197C69.83 151.588 57.237 131.978 46.037 114.744C33.409 95.326 22.537 78.929 22.537 78.929L30.404 76.648L94.667 58.01L136.749 152.261Z" fill="black"/>
<path d="M137.187 150.727L115.21 159.227L83.087 171.646C81.875 169.396 80.087 166.318 77.875 162.663C70.268 150.054 57.675 130.444 46.475 113.21C33.847 93.792 22.975 77.395 22.975 77.395L30.842 75.114L95.105 56.476L137.187 150.727Z" fill="white"/>
<path opacity="0.1" d="M137.183 150.727L115.206 159.227C102.931 161.784 90.4059 162.935 77.871 162.66C70.264 150.051 57.671 130.441 46.471 113.207L30.844 75.115L95.107 56.477L137.183 150.727Z" fill="black"/>
<path d="M153.534 145.438C153.534 145.438 119.391 165.638 68.418 161.077L27.777 62.007L47.252 58.661L114.577 47.1L152.777 143.523L153.534 145.438Z" fill="#00CE7D"/>
<path opacity="0.1" d="M152.772 143.523C143.866 144.007 134.936 143.754 126.072 142.765C115.946 141.578 105.772 139.119 97.03 134.619C90.1745 131.21 83.7922 126.923 78.044 121.866C63.89 109.13 55.131 90.918 47.261 58.661L114.583 47.1L152.772 143.523Z" fill="black"/>
<path d="M177.813 137.985C177.813 137.985 152.635 142.919 127.033 139.885C116.907 138.691 106.721 136.239 97.991 131.739C91.1355 128.33 84.7532 124.043 79.005 118.986C61.478 103.212 52.23 79.064 42.691 30.275C42.691 30.275 84.537 40.375 125.881 18.254C125.883 18.248 139.828 105.286 177.813 137.985Z" fill="white"/>
<path opacity="0.1" d="M127.036 139.88C116.91 138.686 106.724 136.234 97.9939 131.734C91.1385 128.325 84.7562 124.038 79.0079 118.981C93.9259 117.769 96.071 109.613 96.071 109.613C107.129 127.166 127.036 139.88 127.036 139.88Z" fill="black"/>
<path opacity="0.3" d="M64.332 48.183C64.332 48.183 86.811 50.749 107.85 38.926L109.292 43.555C95.165 49.9857 79.8536 53.4036 64.333 53.591L64.332 48.183Z" fill="#00CE7D"/>
<path opacity="0.3" d="M64.332 71.032C80.7348 69.0901 96.697 64.4166 111.557 57.205L112.398 59.129C112.398 59.129 103.242 70.651 64.332 73.661V71.032Z" fill="black"/>
<path opacity="0.3" d="M66.981 79.939C83.3836 77.9973 99.3457 73.3244 114.206 66.114L115.047 68.038C115.047 68.038 105.893 79.571 66.981 82.583V79.939Z" fill="black"/>
<path opacity="0.3" d="M69.404 89.551C85.8066 87.6093 101.769 82.9364 116.629 75.726L117.47 77.65C117.47 77.65 108.304 89.176 69.404 92.196V89.551Z" fill="black"/>
<path opacity="0.3" d="M72.281 97.785C88.6837 95.8433 104.646 91.1704 119.506 83.96L120.347 85.884C120.347 85.884 111.193 97.412 72.281 100.432V97.785Z" fill="black"/>
<path opacity="0.1" d="M74.932 106.706C91.3347 104.764 107.297 100.091 122.157 92.881L122.998 94.805C122.998 94.805 113.842 106.333 74.932 109.351V106.706Z" fill="black"/>
<path opacity="0.3" d="M121.503 51.2041L115.249 53.333L117.378 59.5866L123.631 57.4577L121.503 51.2041Z" fill="#00CE7D"/>
<path opacity="0.3" d="M125.06 60.5071L118.806 62.636L120.935 68.8896L127.188 66.7607L125.06 60.5071Z" fill="#00CE7D"/>
<path opacity="0.3" d="M130.763 78.4061L124.509 80.535L126.638 86.7886L132.891 84.6597L130.763 78.4061Z" fill="#00CE7D"/>
<path opacity="0.3" d="M134.035 88.0131L127.781 90.142L129.91 96.3955L136.163 94.2666L134.035 88.0131Z" fill="#00CE7D"/>
<path opacity="0.3" d="M127.961 70.1711L121.707 72.3L123.836 78.5536L130.089 76.4247L127.961 70.1711Z" fill="#00CE7D"/>
<path d="M193.343 97.176L193.109 96.957C193.709 96.834 194.283 96.78 194.283 96.78C194.283 96.78 192.208 89.274 188.709 86.77C186.985 85.3805 185.559 83.6566 184.518 81.702C182.661 78.505 180.575 75.4467 178.276 72.551L177.645 71.751L177.373 71.405C177.827 70.9137 178.105 70.2855 178.164 69.619C178.163 69.6147 178.163 69.6103 178.164 69.606C178.166 69.571 178.166 69.536 178.164 69.501C178.157 69.4187 178.143 69.3373 178.12 69.258L178.096 69.295C177.796 68.436 176.663 68.057 175.82 67.584C173.848 66.473 173.005 64.046 172.584 61.789C172.255 60.036 171.984 58.064 170.612 56.936C169.736 56.211 168.544 55.972 167.661 55.251C166.888 54.4835 166.267 53.5765 165.832 52.578C165.006 50.9588 163.78 49.5767 162.272 48.562C161.522 48.0672 160.67 47.749 159.779 47.6314C158.888 47.5138 157.983 47.5998 157.13 47.883C156.488 48.128 155.905 48.51 155.27 48.775C153.693 49.432 151.885 49.345 150.323 50.039C148.399 50.893 147.148 52.782 146.005 54.574C145.206 55.7208 144.52 56.9425 143.957 58.222V58.08C143.704 58.6823 143.565 59.3268 143.55 59.98C143.54 60.2576 143.57 60.5352 143.64 60.804C143.777 61.2099 144.011 61.5764 144.321 61.8725C144.631 62.1685 145.007 62.3852 145.419 62.504C145.467 62.7828 145.532 63.0586 145.612 63.33C145.991 64.5766 146.664 65.7135 147.576 66.6445C148.487 67.5754 149.61 68.273 150.848 68.678C150.92 68.704 150.995 68.722 151.067 68.744C151.128 68.9174 151.216 69.0801 151.328 69.226C152.028 70.102 153.428 69.853 154.341 69.215C154.378 69.191 154.413 69.16 154.448 69.134C154.454 69.258 154.467 69.3815 154.487 69.504C154.507 69.609 154.522 69.723 154.544 69.817C154.939 72.297 155.944 74.64 157.469 76.635C157.469 76.635 157.669 76.929 157.982 77.415C157.943 79.7432 158.736 82.0089 160.219 83.804C159.108 84.446 156.714 85.704 155.232 85.598C155.232 85.598 149.79 86.298 149.159 85.949C149.071 85.901 148.988 85.967 148.909 86.115C147.409 85.201 142.619 82.568 142.209 85.949C141.839 89.016 146.209 89.408 148.284 89.424C148.19 90.324 148.137 91.041 148.137 91.041L157.078 90.43L161.734 89.744C161.295 90.3812 160.729 90.9206 160.071 91.328C160.071 91.328 155.862 94.735 155.135 94.766C155.035 94.766 154.999 94.866 155.015 95.033C153.245 95.033 147.739 95.289 149.266 98.357C150.653 101.137 154.557 99.214 156.323 98.151C156.739 98.959 157.094 99.593 157.094 99.593L164.309 94.455L165.871 93.14C166.4 93.1145 166.923 93.0135 167.424 92.84C167.428 92.8601 167.435 92.8794 167.446 92.897C167.502 93.0597 167.544 93.227 167.571 93.397C168.009 95.914 166.537 101.786 166.537 101.786C166.537 101.786 163.299 110.043 164.854 111.17C166.409 112.297 165.259 117.048 165.259 117.048C165.53 117.505 165.843 117.936 166.192 118.336C166.357 118.526 166.54 118.7 166.738 118.855C166.666 119.051 166.606 119.251 166.558 119.455C166.32 120.467 166.41 121.529 166.814 122.487C167.883 125.081 167.233 128.841 167.233 128.841L165.133 143.02C164.215 142.799 163.258 142.799 162.34 143.02C161.597 143.438 161.84 145.548 163.565 146.455C163.041 146.856 162.435 147.135 161.79 147.272C160.256 147.623 159.178 147.846 158.469 147.982C158.423 147.982 154.788 147.182 153.855 147.71C152.922 148.238 153.371 151.18 156.026 151.901C158.626 152.601 168.315 153.636 171.106 153.216L171.283 153.185C173.656 152.716 171.572 149.599 171.309 149.219C171.291 149.092 171.276 148.958 171.259 148.814C171.222 148.49 171.189 148.114 171.165 147.714C173.307 147.971 175.469 148.032 177.622 147.896C177.676 147.893 177.729 147.883 177.78 147.868C179.88 147.452 178.041 144.696 177.804 144.363C177.794 144.278 177.783 144.189 177.771 144.094V144.07C177.771 144.006 177.756 143.939 177.749 143.87C177.749 143.813 177.743 143.755 177.732 143.699C177.714 143.64 177.732 143.594 177.717 143.539C177.708 143.431 177.7 143.319 177.691 143.204V143.062C177.691 142.974 177.68 142.887 177.676 142.797V142.65C177.676 142.519 177.676 142.383 177.663 142.25V141.179C177.663 141.032 177.676 140.879 177.685 140.73L177.698 140.568C177.698 140.456 177.716 140.349 177.726 140.235C177.723 140.18 177.729 140.124 177.744 140.071C177.762 139.918 177.781 139.764 177.803 139.609C177.807 139.563 177.814 139.516 177.825 139.471C177.845 139.355 177.864 139.237 177.886 139.118C177.892 139.059 177.903 139 177.921 138.943C177.947 138.816 177.976 138.689 178.007 138.562C178.011 138.526 178.019 138.491 178.031 138.457C178.07 138.304 178.114 138.157 178.16 138.001C178.175 137.948 178.193 137.896 178.21 137.843C178.247 137.729 178.287 137.624 178.328 137.506L178.381 137.366C178.44 137.217 178.504 137.066 178.569 136.928C178.586 136.891 178.606 136.854 178.626 136.816C178.681 136.702 178.74 136.597 178.801 136.479L178.875 136.35C178.958 136.21 179.044 136.07 179.138 135.936C181.548 132.501 182.183 125.875 182.124 124.436C182.065 122.997 182.411 120.004 182.843 119.561C183.937 118.166 184.931 116.695 185.82 115.161C186.002 114.837 186.16 114.532 186.284 114.261C186.998 114.013 187.471 113.823 187.471 113.823C187.219 112.903 187.098 111.953 187.112 110.999C187.095 109.821 187.321 108.652 187.777 107.566C188.232 106.479 188.907 105.499 189.759 104.685C191.833 102.922 193.127 100.412 193.359 97.7V97.492C193.353 97.276 193.343 97.176 193.343 97.176Z" fill="url(#paint0_linear)"/>
<path d="M185.017 115.548C184.169 117.063 183.218 118.517 182.169 119.901C181.757 120.339 181.426 123.301 181.483 124.721C181.54 126.141 180.937 132.698 178.635 136.094C176.333 139.49 177.515 145.359 177.515 145.359L173.841 146.647H169.426L166.385 145.738L165.585 143.525C165.585 143.525 166.654 143.361 169.309 142.725C170.046 142.575 170.713 142.189 171.209 141.624C171.706 141.06 172.004 140.349 172.059 139.599L173.924 126.579C174.226 124.722 174.104 122.821 173.567 121.018C173.312 120.378 173.206 119.688 173.258 119C173.31 118.313 173.518 117.647 173.867 117.052L173.926 116.96C175.743 115.552 177.688 114.315 179.734 113.266C182.334 112.013 184.964 111.417 185.711 113.641C185.654 114.327 185.414 114.986 185.017 115.548Z" fill="#A5636D"/>
<path opacity="0.05" d="M185.017 115.548C184.169 117.063 183.218 118.517 182.169 119.901C181.757 120.339 181.426 123.301 181.483 124.721C181.54 126.141 180.937 132.698 178.635 136.094C177.014 138.489 177.121 142.108 177.32 144.038C177.405 144.846 177.511 145.353 177.511 145.353L173.837 146.641H169.427L166.386 145.741L165.586 143.528C165.586 143.528 165.853 143.486 166.462 143.368C167.071 143.25 167.996 143.048 169.323 142.733C170.057 142.58 170.721 142.193 171.215 141.629C171.709 141.064 172.005 140.355 172.059 139.607L173.924 126.587C174.226 124.73 174.104 122.829 173.567 121.026C173.312 120.386 173.206 119.696 173.258 119.008C173.31 118.321 173.518 117.655 173.867 117.06L173.926 116.968C175.743 115.559 177.688 114.323 179.734 113.274C182.334 112.021 184.964 111.425 185.711 113.649C185.652 114.332 185.413 114.988 185.017 115.548Z" fill="black"/>
<path opacity="0.1" d="M177.516 145.364L173.842 146.652H169.427L166.386 145.741L165.586 143.528C165.586 143.528 165.853 143.486 166.462 143.368C166.419 143.77 166.525 144.174 166.759 144.504C166.994 144.833 167.341 145.065 167.735 145.156L169.461 145.215C169.704 145.215 169.949 145.228 170.19 145.228C172.618 145.229 175.03 144.829 177.328 144.043C177.415 144.851 177.516 145.364 177.516 145.364Z" fill="black"/>
<path d="M169.457 145.587L167.728 145.528C167.5 145.475 167.285 145.375 167.098 145.234C166.911 145.093 166.755 144.915 166.64 144.711C166.526 144.507 166.455 144.281 166.433 144.048C166.41 143.815 166.437 143.579 166.51 143.357C166.51 143.357 163.399 142.652 162.604 143.118C161.809 143.584 162.192 146.159 164.44 146.79C166.631 147.406 174.84 148.31 177.198 147.94L177.349 147.914C179.487 147.476 177.349 144.409 177.349 144.409C174.812 145.277 172.138 145.677 169.458 145.588L169.457 145.587Z" fill="#BEBED0"/>
<path d="M180.104 116.054C179.988 116.286 179.863 116.527 179.721 116.779C178.791 118.442 177.745 120.038 176.592 121.555C176.128 122.055 175.757 125.389 175.816 127.002C175.875 128.615 175.2 136.002 172.602 139.836C171.416 141.904 170.857 144.272 170.994 146.652C171.001 147.385 171.044 148.116 171.123 148.843C171.223 149.735 171.342 150.291 171.342 150.291L167.197 151.744H162.208L158.775 150.723L157.875 148.217C157.875 148.217 158.175 148.169 158.85 148.035C159.525 147.901 160.576 147.678 162.079 147.323C162.909 147.152 163.66 146.715 164.219 146.078C164.779 145.442 165.116 144.641 165.179 143.796L167.279 129.102C167.279 129.102 167.899 125.388 166.879 122.825C166.494 121.873 166.408 120.827 166.634 119.825C166.756 119.262 166.979 118.726 167.291 118.243C167.291 118.243 168.091 117.612 169.302 116.777C169.837 116.409 170.457 116.001 171.123 115.59C174.05 113.778 177.899 111.929 179.744 113.276C180.151 113.583 180.449 114.012 180.594 114.501C180.571 115.053 180.402 115.589 180.104 116.054Z" fill="#A5636D"/>
<path opacity="0.1" d="M171.331 150.294L167.186 151.747H162.208L158.775 150.726L157.875 148.22C157.875 148.22 158.175 148.172 158.85 148.038C158.807 148.335 158.838 148.638 158.939 148.92C159.041 149.203 159.21 149.456 159.433 149.657C159.779 149.951 160.216 150.115 160.669 150.121L162.24 150.171C162.514 150.171 162.79 150.186 163.064 150.186C165.806 150.185 168.528 149.732 171.122 148.845C171.22 149.737 171.331 150.294 171.331 150.294Z" fill="black"/>
<path d="M162.239 150.543L160.67 150.49C160.216 150.482 159.779 150.318 159.432 150.026C159.165 149.776 158.975 149.455 158.883 149.101C158.792 148.747 158.802 148.374 158.913 148.026C158.913 148.026 155.408 147.226 154.503 147.757C153.598 148.288 154.041 151.19 156.576 151.902C159.058 152.596 168.313 153.617 170.976 153.202L171.145 153.171C173.555 152.671 171.145 149.21 171.145 149.21C168.282 150.193 165.264 150.645 162.239 150.543Z" fill="#BEBED0"/>
<path opacity="0.1" d="M185.018 115.551C183.436 116.164 181.786 116.582 180.104 116.798C179.979 116.803 179.853 116.797 179.729 116.78C177.773 116.742 175.816 116.837 173.873 117.065C172.911 117.15 171.987 117.24 171.222 117.319C170.083 117.437 169.298 117.519 169.298 117.519V116.776C169.833 116.408 170.453 116 171.119 115.589C174.046 113.777 177.895 111.928 179.74 113.275C182.34 112.022 184.97 111.426 185.717 113.65C185.65 114.333 185.41 114.988 185.018 115.551Z" fill="black"/>
<path d="M192.219 98.27C192.003 100.93 190.77 103.403 188.777 105.178C184.977 108.892 186.586 114.224 186.586 114.224C186.586 114.224 182.051 116.005 180.094 116.053C179.969 116.058 179.843 116.052 179.719 116.035C176.872 116.042 174.028 116.222 171.203 116.574C170.064 116.692 169.279 116.774 169.279 116.774V101.004L190.296 95.904L192.196 97.804C192.214 97.9586 192.222 98.1143 192.219 98.27Z" fill="#5C5C8E"/>
<g opacity="0.1">
<path opacity="0.1" d="M169.635 116.584L169.289 116.621V116.788C169.289 116.788 170.073 116.703 171.213 116.588C173.137 116.388 176.075 116.119 178.013 116.038C175.212 116.067 172.416 116.249 169.635 116.584Z" fill="black"/>
<path opacity="0.1" d="M192.21 97.806L190.31 95.906L189.041 96.224L190.636 97.812C190.647 97.9702 190.647 98.1289 190.636 98.287C190.419 100.946 189.186 103.42 187.194 105.195C183.394 108.906 185.003 114.241 185.003 114.241C183.091 115.001 181.117 115.595 179.103 116.018C179.308 116.017 179.512 116.028 179.716 116.051C179.84 116.068 179.966 116.075 180.091 116.071C182.047 116.023 186.583 114.242 186.583 114.242C186.583 114.242 184.962 108.907 188.774 105.196C190.766 103.421 191.999 100.947 192.216 98.288C192.225 98.1274 192.223 97.9663 192.21 97.806Z" fill="black"/>
</g>
<path d="M150.22 87.128C150.22 87.128 143.866 82.72 143.4 86.69C142.934 90.66 150.22 90.09 150.22 90.09V87.128Z" fill="#A5636D"/>
<path d="M161.173 84.205C161.173 84.205 157.736 86.479 155.834 86.339C155.834 86.339 150.634 87.039 150.034 86.687C149.434 86.335 149.061 91.726 149.061 91.726L157.605 91.126L163.082 90.289C163.082 90.289 165.821 88.62 165.821 87.18C165.821 85.74 161.173 84.205 161.173 84.205Z" fill="#F7CDDD"/>
<path opacity="0.05" d="M161.173 84.205C161.173 84.205 157.736 86.479 155.834 86.339C155.834 86.339 150.634 87.039 150.034 86.687C149.434 86.335 149.061 91.726 149.061 91.726L157.605 91.126L163.082 90.289C163.082 90.289 165.821 88.62 165.821 87.18C165.821 85.74 161.173 84.205 161.173 84.205Z" fill="black"/>
<path d="M156.133 95.676C156.133 95.676 148.406 95.356 150.133 98.962C151.86 102.568 157.72 98.191 157.72 98.191L156.133 95.676Z" fill="#A5636D"/>
<path d="M163.906 88.01C163.906 88.01 157.642 83.324 158.525 77.616C159.408 71.908 163.906 81.985 163.906 81.985V88.01Z" fill="#5C5C8E"/>
<path d="M162.176 62.136C162.174 64.1887 161.375 66.1604 159.948 67.636C159.6 67.9988 159.217 68.3254 158.804 68.611C158.015 69.161 157.135 69.5672 156.204 69.811C155.834 69.9035 155.459 69.9704 155.08 70.011C154.808 70.037 154.534 70.053 154.256 70.053C153.368 70.0581 152.485 69.91 151.647 69.615C150.275 69.1362 149.061 68.289 148.138 67.1663C147.216 66.0435 146.62 64.6885 146.416 63.2497C146.212 61.8109 146.409 60.3437 146.983 59.0089C147.558 57.6741 148.488 56.5231 149.673 55.6821C150.858 54.841 152.252 54.3423 153.702 54.2406C155.151 54.1389 156.601 54.4381 157.892 55.1054C159.183 55.7727 160.265 56.7824 161.021 58.0239C161.776 59.2654 162.175 60.6908 162.174 62.144L162.176 62.136Z" fill="#A5636D"/>
<path opacity="0.1" d="M192.219 98.27C191.509 98.402 190.633 98.638 190.633 99.006C190.633 99.626 180.733 102.967 180.733 102.967C180.733 102.967 181.103 103.83 180.115 105.316C179.127 106.802 171.082 115.337 171.082 115.337L171.108 115.591L171.208 116.575L171.699 121.275C171.699 121.275 168.605 120.162 167.615 120.285C167.427 120.281 167.243 120.238 167.073 120.158C166.903 120.079 166.751 119.966 166.627 119.825C166.749 119.262 166.972 118.727 167.284 118.243C167.284 118.243 168.084 117.612 169.295 116.777V101.004L190.312 95.904L192.212 97.804C192.225 97.959 192.227 98.1147 192.219 98.27Z" fill="black"/>
<path d="M193.113 97.398C193.113 97.398 190.637 97.643 190.637 98.263C190.637 98.883 180.737 102.224 180.737 102.224C180.737 102.224 181.107 103.087 180.119 104.573C179.131 106.059 171.086 114.596 171.086 114.596L171.706 120.533C171.706 120.533 168.612 119.42 167.622 119.543C167.184 119.598 166.691 119.19 166.286 118.715C165.951 118.318 165.652 117.892 165.394 117.442C165.394 117.442 166.509 112.742 165.024 111.625C163.539 110.508 166.632 102.347 166.632 102.347C166.632 102.347 168.032 96.541 167.618 94.047C167.593 93.8803 167.553 93.716 167.5 93.556C167.497 93.5368 167.491 93.5182 167.482 93.501C166.606 91.122 157.106 71.154 157.106 71.154C157.112 70.5875 157.151 70.0218 157.224 69.46C157.244 69.304 157.27 69.142 157.299 68.978C157.347 68.6827 157.412 68.3902 157.492 68.102C157.542 67.9169 157.602 67.7347 157.672 67.556C157.966 66.802 158.415 66.222 159.085 66.209C159.774 65.5942 160.648 65.2265 161.569 65.164C163.482 65.0125 165.401 65.3732 167.129 66.209C172.942 68.68 174.304 68.809 174.304 68.809L177.224 72.643L177.824 73.43C180.024 76.2999 182.016 79.3236 183.785 82.478C184.769 84.4002 186.129 86.105 187.785 87.491C191.128 89.976 193.113 97.398 193.113 97.398Z" fill="#F7CDDD"/>
<path opacity="0.1" d="M171.423 83.092C171.423 83.092 179.683 85.134 182.884 90.282L171.423 83.092Z" fill="black"/>
<path opacity="0.1" d="M173.975 92.138C173.975 92.138 175.537 102.626 175.103 103.415C174.669 104.204 173.975 92.138 173.975 92.138Z" fill="black"/>
<path opacity="0.1" d="M173.417 97.521C172.817 98.308 170.378 104.387 170.378 104.387L171.078 114.597L171.698 120.534C171.698 120.534 168.607 119.421 167.616 119.544C167.178 119.599 166.683 119.191 166.28 118.716C166.922 115.239 168.296 107.963 168.543 107.823C168.869 107.637 170.543 101.792 170.629 100.155C170.715 98.518 173.039 94.871 173.039 94.871C173.039 94.871 174.021 96.734 173.417 97.521Z" fill="black"/>
<path opacity="0.1" d="M171.083 87.5C170.93 87.962 170.693 90.655 170.693 90.655C170.647 91.4886 170.316 92.2812 169.756 92.9002C169.196 93.5191 168.44 93.9268 167.615 94.055C167.59 93.8883 167.55 93.724 167.497 93.564C166.754 91.464 157.103 71.171 157.103 71.171C157.113 70.1415 157.243 69.1167 157.489 68.117C159.589 67.499 162.916 68.45 162.916 68.45C163.878 68.323 167.016 74.56 167.016 74.56C167.016 74.56 169.106 79.336 169.336 79.987C169.43 80.6794 169.461 81.379 169.428 82.077C169.52 82.449 170.497 82.769 170.635 83.277C170.773 83.785 170.683 84.811 170.775 84.992C171.017 85.805 171.121 86.6527 171.083 87.5Z" fill="black"/>
<path d="M170.339 87.128C170.186 87.592 169.949 90.283 169.949 90.283C169.923 91.0105 169.672 91.7119 169.229 92.2896C168.786 92.8673 168.174 93.2925 167.478 93.506C167 93.6783 166.5 93.7793 165.993 93.806L164.501 95.106L157.611 100.178C157.611 100.178 155.043 95.43 155.74 95.404C156.437 95.378 160.455 92.004 160.455 92.004C161.684 91.347 162.915 89.156 163.487 88.03C163.454 87.8957 163.429 87.7594 163.412 87.622C163.164 85.522 157.968 77.476 157.968 77.476C156.504 75.4882 155.546 73.1734 155.177 70.732C155.155 70.632 155.14 70.532 155.12 70.423C155.098 70.2867 155.085 70.1491 155.081 70.011C154.987 68.326 156.214 67.711 157.668 67.568C158.428 67.5076 159.192 67.5311 159.947 67.638C160.699 67.7327 161.443 67.879 162.175 68.076C162.797 67.993 164.331 70.576 165.336 72.414C165.877 73.409 166.267 74.184 166.267 74.184C166.267 74.184 168.357 78.962 168.587 79.611C168.681 80.3035 168.712 81.003 168.679 81.701C168.771 82.071 169.748 82.396 169.886 82.908C170.024 83.42 169.934 84.442 170.026 84.623C170.269 85.4348 170.375 86.2814 170.339 87.128Z" fill="#F7CDDD"/>
<path opacity="0.1" d="M178.333 76.423C177.633 77.0222 176.774 77.4036 175.86 77.5204C174.947 77.6371 174.019 77.4841 173.191 77.08C171.54 76.2456 169.959 75.2798 168.463 74.192C167.438 73.565 166.351 73.053 165.341 72.406C165.192 72.306 165.047 72.213 164.903 72.112C163.737 71.288 162.727 70.23 161.52 69.483C160.712 68.9461 159.772 68.6429 158.803 68.607C158.357 68.6031 157.915 68.6959 157.508 68.879C157.433 68.9096 157.359 68.9453 157.289 68.986C156.89 69.2137 156.52 69.4898 156.189 69.808C155.847 70.115 155.521 70.441 155.161 70.728C155.139 70.628 155.124 70.528 155.104 70.419C155.082 70.2827 155.069 70.1451 155.065 70.007C154.793 70.033 154.519 70.049 154.241 70.049C153.353 70.0541 152.47 69.906 151.632 69.611C151.635 69.5764 151.628 69.5417 151.612 69.511C151.312 67.951 150.782 66.299 149.526 65.423C148.601 64.9539 147.629 64.5852 146.626 64.323C146.277 63.1073 146.224 61.8256 146.472 60.5852C146.72 59.3448 147.261 58.1818 148.051 57.1937C148.84 56.2055 149.855 55.421 151.01 54.9056C152.166 54.3903 153.427 54.1592 154.69 54.2318C155.953 54.3043 157.18 54.6784 158.269 55.3226C159.357 55.9668 160.276 56.8624 160.947 57.9344C161.618 59.0065 162.023 60.2238 162.127 61.4844C162.231 62.745 162.032 64.0123 161.546 65.18C163.459 65.0286 165.378 65.3892 167.106 66.225C172.918 68.696 174.281 68.825 174.281 68.825L177.201 72.659C176.838 73.096 176.595 73.6198 176.496 74.179C176.451 75.216 177.456 75.934 178.333 76.423Z" fill="black"/>
<path d="M149.54 64.677C150.795 65.553 151.33 67.203 151.628 68.761C151.677 69.2536 151.841 69.7278 152.106 70.146C152.763 71.009 154.113 70.766 154.983 70.146C155.759 69.4004 156.605 68.7307 157.509 68.146C158.176 67.913 158.89 67.8458 159.589 67.9504C160.287 68.0549 160.95 68.328 161.52 68.746C162.727 69.502 163.737 70.56 164.903 71.375C166.031 72.175 167.289 72.738 168.463 73.454C169.957 74.5442 171.539 75.5101 173.191 76.342C174.891 77.026 177.025 77.023 178.331 75.685C177.455 75.199 176.449 74.485 176.517 73.437C176.585 72.389 177.799 71.616 177.717 70.547C177.635 69.478 176.378 69.059 175.476 68.534C173.592 67.434 172.788 65.029 172.385 62.805C172.072 61.065 171.813 59.122 170.514 58.005C169.675 57.286 168.542 57.052 167.696 56.34C166.954 55.5741 166.36 54.6778 165.943 53.696C165.162 52.107 163.993 50.7407 162.543 49.724C161.836 49.2322 161.022 48.915 160.169 48.7986C159.315 48.6821 158.446 48.7697 157.633 49.054C157.02 49.297 156.461 49.674 155.856 49.93C154.349 50.587 152.624 50.493 151.132 51.179C149.294 52.025 148.1 53.891 147.007 55.664C146.082 57.182 144.249 59.864 144.768 61.831C145.288 63.834 148.178 63.727 149.54 64.677Z" fill="#4C3E42"/>
<g opacity="0.1">
<path opacity="0.1" d="M177.716 70.427C177.709 70.3456 177.695 70.265 177.674 70.186C177.279 70.6603 177.008 71.2257 176.887 71.831C176.878 71.973 176.89 72.1154 176.922 72.254C177.375 71.7456 177.653 71.1052 177.716 70.427Z" fill="black"/>
<path opacity="0.1" d="M173.562 74.743C171.91 73.9111 170.33 72.9452 168.836 71.855C167.659 71.139 166.402 70.571 165.274 69.776C164.108 68.952 163.098 67.894 161.891 67.147C161.32 66.7314 160.657 66.4599 159.959 66.3554C159.261 66.2509 158.547 66.3167 157.88 66.547C156.974 67.1288 156.128 67.7987 155.354 68.547C154.482 69.178 153.146 69.423 152.477 68.547C152.212 68.1287 152.048 67.6545 151.999 67.162C151.847 65.5853 151.101 64.1254 149.913 63.078C148.548 62.125 145.658 62.232 145.135 60.23C145.047 59.8703 145.024 59.4978 145.067 59.13C144.709 59.9381 144.605 60.8354 144.767 61.704C145.293 63.715 148.183 63.604 149.545 64.552C150.8 65.428 151.335 67.08 151.633 68.638C151.682 69.1301 151.845 69.6041 152.108 70.023C152.765 70.886 154.115 70.643 154.987 70.012C155.76 69.2631 156.607 68.5932 157.513 68.012C158.18 67.7796 158.894 67.7127 159.592 67.8172C160.291 67.9217 160.954 68.1945 161.524 68.612C162.731 69.368 163.741 70.426 164.907 71.241C166.035 72.041 167.293 72.604 168.467 73.32C169.961 74.4116 171.542 75.3782 173.195 76.21C174.895 76.894 177.029 76.889 178.335 75.553C177.997 75.3716 177.677 75.1597 177.378 74.92C176.126 75.3225 174.771 75.2597 173.562 74.743Z" fill="black"/>
</g>
<path d="M134.785 89.728L152.312 83.182C152.517 83.1051 152.735 83.0694 152.954 83.0768C153.173 83.0843 153.388 83.1349 153.587 83.2256C153.786 83.3164 153.966 83.4455 154.115 83.6057C154.264 83.7658 154.38 83.9539 154.457 84.159C154.534 84.3641 154.569 84.5823 154.561 84.8011C154.554 85.02 154.503 85.2351 154.412 85.4343C154.321 85.6335 154.192 85.8128 154.031 85.962C153.871 86.1113 153.683 86.2275 153.478 86.304L135.951 92.853L132.196 92.476L134.785 89.728Z" fill="#5C5C8E"/>
<path opacity="0.1" d="M153.925 83.633C154.079 84.0476 154.063 84.5065 153.88 84.909C153.696 85.3115 153.36 85.6248 152.946 85.78L135.419 92.326L132.597 92.043L132.192 92.481L135.947 92.858L153.474 86.309C153.679 86.2325 153.867 86.1163 154.027 85.967C154.188 85.8178 154.317 85.6385 154.408 85.4393C154.499 85.2401 154.55 85.0249 154.557 84.8061C154.565 84.5873 154.53 84.3691 154.453 84.164C154.325 83.8184 154.085 83.5254 153.772 83.331C153.832 83.4267 153.884 83.5278 153.925 83.633Z" fill="white"/>
<path d="M134.785 89.728L135.953 92.852L132.87 92.543L132.195 92.475L133.117 91.498L134.785 89.728Z" fill="#EFC8C4"/>
<path d="M133.116 91.499C133.189 91.5527 133.25 91.6208 133.296 91.699C133.324 91.744 133.339 91.796 133.339 91.849C133.339 91.902 133.324 91.954 133.296 91.999C133.245 92.0475 133.188 92.088 133.125 92.119C133.054 92.1658 132.994 92.2283 132.951 92.3016C132.908 92.3749 132.882 92.4571 132.875 92.542L132.2 92.474L133.116 91.499Z" fill="#727A9C"/>
<path d="M119.486 55.877L116.53 54.435C116.488 54.4144 116.45 54.3857 116.419 54.3506C116.388 54.3154 116.364 54.2744 116.349 54.23C116.334 54.1856 116.327 54.1387 116.33 54.0918C116.333 54.045 116.345 53.9992 116.366 53.957L116.679 53.313C116.699 53.2707 116.728 53.2328 116.763 53.2015C116.798 53.1703 116.839 53.1463 116.884 53.1311C116.928 53.1158 116.975 53.1096 117.022 53.1127C117.069 53.1157 117.115 53.1281 117.157 53.149L119.149 54.12L121.228 49.856C121.269 49.7707 121.343 49.7052 121.433 49.6739C121.522 49.6426 121.62 49.648 121.706 49.689L122.35 50.005C122.392 50.0254 122.43 50.054 122.461 50.0891C122.493 50.1243 122.517 50.1653 122.532 50.2097C122.547 50.2542 122.553 50.3013 122.55 50.3482C122.547 50.3951 122.535 50.4409 122.514 50.483L119.964 55.713C119.943 55.7552 119.915 55.7929 119.88 55.824C119.844 55.8551 119.803 55.8789 119.759 55.8941C119.715 55.9094 119.668 55.9157 119.621 55.9128C119.574 55.9098 119.528 55.8977 119.486 55.877Z" fill="#3ACC6C"/>
<path d="M125.943 74.317L122.987 72.875C122.945 72.8544 122.907 72.8257 122.876 72.7905C122.845 72.7554 122.821 72.7144 122.806 72.67C122.791 72.6256 122.784 72.5786 122.787 72.5318C122.79 72.485 122.802 72.4391 122.823 72.397L123.136 71.753C123.178 71.6677 123.252 71.6025 123.342 71.5717C123.432 71.541 123.531 71.5472 123.616 71.589L125.605 72.56L127.682 68.292C127.723 68.2066 127.797 68.1412 127.887 68.1099C127.976 68.0786 128.074 68.084 128.16 68.125L128.802 68.44C128.844 68.4603 128.882 68.4888 128.914 68.5239C128.945 68.5589 128.969 68.5998 128.985 68.6443C129 68.6887 129.007 68.7357 129.004 68.7827C129.002 68.8297 128.99 68.8757 128.969 68.918L126.419 74.148C126.376 74.2328 126.302 74.2975 126.212 74.3281C126.123 74.3588 126.025 74.353 125.939 74.312L125.943 74.317Z" fill="#3ACC6C"/>
<path d="M123.044 65.227L120.088 63.785C120.003 63.7435 119.937 63.67 119.906 63.5804C119.875 63.4909 119.88 63.3925 119.921 63.307L120.236 62.663C120.256 62.6206 120.285 62.5827 120.32 62.5515C120.355 62.5203 120.396 62.4963 120.441 62.481C120.485 62.4658 120.532 62.4595 120.579 62.4626C120.626 62.4657 120.672 62.4781 120.714 62.499L122.706 63.47L124.785 59.2C124.806 59.1578 124.834 59.1201 124.869 59.089C124.905 59.0579 124.946 59.0341 124.99 59.0189C125.034 59.0036 125.081 58.9973 125.128 59.0002C125.175 59.0031 125.221 59.0153 125.263 59.036L125.907 59.349C125.992 59.3913 126.057 59.4655 126.087 59.5553C126.118 59.6452 126.112 59.7435 126.071 59.829L123.519 65.063C123.498 65.1052 123.47 65.1429 123.435 65.1739C123.399 65.205 123.358 65.2289 123.314 65.2441C123.27 65.2593 123.223 65.2657 123.176 65.2627C123.129 65.2598 123.083 65.2476 123.041 65.227H123.044Z" fill="#3ACC6C"/>
<path d="M128.746 82.643L125.79 81.201C125.748 81.1804 125.71 81.1517 125.679 81.1166C125.648 81.0814 125.624 81.0404 125.609 80.996C125.594 80.9516 125.587 80.9047 125.59 80.8578C125.593 80.811 125.605 80.7652 125.626 80.723L125.939 80.079C125.96 80.0368 125.988 79.9991 126.023 79.968C126.059 79.937 126.1 79.9131 126.144 79.8979C126.188 79.8826 126.235 79.8763 126.282 79.8793C126.329 79.8822 126.375 79.8943 126.417 79.915L128.409 80.886L130.488 76.623C130.53 76.5377 130.604 76.4724 130.694 76.4411C130.784 76.4099 130.882 76.4152 130.968 76.456L131.61 76.771C131.652 76.7914 131.69 76.82 131.722 76.8551C131.753 76.8903 131.777 76.9313 131.792 76.9757C131.807 77.0202 131.813 77.0672 131.81 77.1142C131.807 77.1611 131.795 77.2069 131.774 77.249L129.226 82.479C129.183 82.5638 129.109 82.6285 129.02 82.6591C128.93 82.6898 128.832 82.684 128.746 82.643Z" fill="#3ACC6C"/>
<defs>
<linearGradient id="paint0_linear" x1="142.187" y1="153.313" x2="226.026" y2="112.005" gradientUnits="userSpaceOnUse">
<stop stop-color="#808080" stop-opacity="0.251"/>
<stop offset="0.54" stop-color="#808080" stop-opacity="0.122"/>
<stop offset="1" stop-color="#808080" stop-opacity="0.102"/>
</linearGradient>
</defs>
</svg>
