<svg width="23" height="20" viewBox="0 0 23 20" fill="none" xmlns="http://www.w3.org/2000/svg">
<path d="M13.625 3.26099C14.1539 3.59055 14.6008 4.03635 14.9315 4.5645C15.2623 5.09266 15.4684 5.68927 15.534 6.30899C16.1812 6.61124 16.9088 6.69603 17.6081 6.5507C18.3074 6.40538 18.941 6.03773 19.4142 5.50266C19.8873 4.96759 20.1747 4.29382 20.2334 3.58196C20.2921 2.8701 20.119 2.15834 19.7399 1.553C19.3607 0.947648 18.7959 0.481184 18.1299 0.223264C17.4638 -0.0346551 16.7321 -0.0701903 16.0442 0.121966C15.3562 0.314121 14.7489 0.723658 14.3129 1.28942C13.8769 1.85517 13.6356 2.54679 13.625 3.26099ZM11.456 10.041C12.1108 10.0408 12.7509 9.84644 13.2952 9.4825C13.8396 9.11856 14.2638 8.60139 14.5143 7.99636C14.7647 7.39134 14.8301 6.72564 14.7023 6.08343C14.5744 5.44123 14.259 4.85136 13.7959 4.38841C13.3328 3.92546 12.7428 3.61021 12.1006 3.48254C11.4583 3.35486 10.7927 3.42049 10.1877 3.67112C9.58276 3.92175 9.06571 4.34613 8.70193 4.8906C8.33816 5.43507 8.144 6.07518 8.144 6.72999C8.144 7.1648 8.22964 7.59535 8.39604 7.99706C8.56243 8.39877 8.80631 8.76377 9.11377 9.07122C9.7347 9.69215 10.5769 10.041 11.455 10.041H11.456ZM12.856 10.267H10.05C8.92589 10.2683 7.8482 10.7155 7.05333 11.5103C6.25846 12.3052 5.81132 13.3829 5.81 14.507V17.943L5.819 17.997L6.056 18.071C7.91937 18.6716 9.86329 18.9852 11.821 19.001C13.5475 19.0571 15.2654 18.7346 16.854 18.056L17.075 17.944H17.1V14.506C17.0989 13.3819 16.6519 12.3041 15.8569 11.5094C15.0619 10.7146 13.9841 10.2678 12.86 10.267H12.856ZM18.338 6.85199H15.55C15.5217 7.92831 15.0691 8.94983 14.291 9.69399C15.3298 10.0034 16.2412 10.6396 16.8897 11.5081C17.5383 12.3766 17.8894 13.4311 17.891 14.515V15.574C19.4199 15.5639 20.9311 15.2466 22.335 14.641L22.556 14.529H22.58V11.088C22.5779 9.96415 22.1301 8.88702 21.3348 8.09291C20.5396 7.29879 19.4618 6.85252 18.338 6.85199ZM5.645 6.62299C6.26857 6.62304 6.87931 6.44582 7.406 6.11199C7.56621 5.0758 8.11731 4.14036 8.946 3.49799C8.946 3.43599 8.955 3.37499 8.955 3.31199C8.955 2.65714 8.76081 2.01699 8.397 1.4725C8.03318 0.928007 7.51607 0.503628 6.91106 0.253026C6.30606 0.00242442 5.64033 -0.0631441 4.99806 0.0646116C4.35578 0.192367 3.76582 0.507709 3.30277 0.970761C2.83972 1.43381 2.52438 2.02378 2.39662 2.66605C2.26886 3.30832 2.33443 3.97405 2.58503 4.57906C2.83564 5.18406 3.26002 5.70117 3.80451 6.06499C4.349 6.4288 4.98915 6.62299 5.644 6.62299H5.645ZM8.619 9.69099C7.84464 8.95037 7.39246 7.93502 7.36 6.86399C7.26 6.85599 7.154 6.84799 7.049 6.84799H4.24C3.11581 6.84905 2.03796 7.2961 1.24304 8.09103C0.448112 8.88595 0.00105906 9.9638 0 11.088L0 14.525L0.009 14.578L0.245 14.652C1.79355 15.1461 3.39685 15.4483 5.019 15.552V14.512C5.02076 13.4281 5.37196 12.3737 6.02047 11.5052C6.66899 10.6367 7.58025 10.0005 8.619 9.69099Z" fill="#00CE7D"/>
</svg>
