<svg width="18" height="24" viewBox="0 0 18 24" fill="none" xmlns="http://www.w3.org/2000/svg">
<path d="M10.986 18.006C12.331 18.449 13.518 18.732 15.225 19.236C14.569 27.209 6.737 24.043 10.986 18.006ZM17.979 10.682C17.891 8.28799 17.453 5.14799 13.964 5.63999C12.328 6.05099 11.12 7.77999 10.552 10.763C10.2848 12.5359 10.3656 14.344 10.79 16.086C11.126 17.059 11.012 16.999 11.373 17.186C12.773 17.486 14.156 17.825 15.566 18.167C16.997 17.191 18.173 12.021 17.978 10.682H17.979ZM7.211 10.5C7.63398 8.75701 7.71346 6.94834 7.445 5.17499C6.881 2.19199 5.67201 0.461986 4.03601 0.0519862C0.545007 -0.440014 0.109007 2.69999 0.0210073 5.09399C-0.173993 6.43299 1.003 11.603 2.435 12.577C3.845 12.235 5.229 11.899 6.628 11.596C6.989 11.411 6.875 11.47 7.211 10.5ZM2.77501 13.648C3.43001 21.621 11.262 18.454 7.013 12.418C5.668 12.861 4.48101 13.144 2.77501 13.648Z" fill="#00CE7D"/>
</svg>
