<svg width="21" height="21" viewBox="0 0 21 21" fill="none" xmlns="http://www.w3.org/2000/svg">
<path d="M10.498 3.64899L2.32301 10.774V20.307C2.32222 20.3972 2.33921 20.4867 2.373 20.5704C2.4068 20.654 2.45674 20.7302 2.51998 20.7945C2.58321 20.8589 2.65851 20.9102 2.74156 20.9454C2.82461 20.9807 2.91379 20.9992 3.00401 21H8.45501V15.459H12.543V20.998H17.994C18.0842 20.9972 18.1734 20.9787 18.2565 20.9434C18.3395 20.9082 18.4148 20.8569 18.478 20.7925C18.5413 20.7282 18.5912 20.652 18.625 20.5684C18.6588 20.4847 18.6758 20.3952 18.675 20.305V10.775L10.498 3.64899ZM12.543 12.688H8.45501V9.22399H12.543V12.688Z" fill="#00CE7D"/>
<path d="M10.499 0L5.73001 4.155V1.605H3.005V6.531L0.00500488 9.15L0.892005 10.201L10.503 1.824L20.11 10.201L20.997 9.15L10.499 0Z" fill="#00CE7D"/>
</svg>
