<svg width="20" height="20" viewBox="0 0 20 20" fill="none" xmlns="http://www.w3.org/2000/svg">
<path d="M14.1664 0.00298729C13.3893 0.00731046 12.6208 0.166009 11.9055 0.469863C11.1903 0.773718 10.5426 1.21667 10 1.77299C9.19452 0.940305 8.1588 0.367046 7.0255 0.126645C5.8922 -0.113756 4.71294 -0.0103521 3.63877 0.423611C2.56461 0.857574 1.64445 1.60234 0.996178 2.56249C0.347906 3.52265 0.00103478 4.65447 0 5.81299C0 11.1257 9.08545 18.5912 9.47273 18.9039C9.62179 19.025 9.80797 19.091 10 19.091C10.192 19.091 10.3782 19.025 10.5273 18.9039C10.9145 18.5912 20 11.1257 20 5.81299C19.9949 4.26954 19.378 2.7911 18.2844 1.70193C17.1908 0.612757 15.7098 0.00177545 14.1664 0.00298729Z" fill="#00CE7D"/>
</svg>
