<svg width="18" height="18" viewBox="0 0 19 19" fill="none" xmlns="http://www.w3.org/2000/svg">
<path d="M13.864 12.321H13.051L12.763 12.043C13.8917 10.7281 14.467 9.02711 14.3682 7.29708C14.2694 5.56706 13.5041 3.94259 12.2331 2.76476C10.9621 1.58693 9.28422 0.947344 7.55169 0.980293C5.81916 1.01324 4.16677 1.71616 2.94147 2.94147C1.71616 4.16677 1.01324 5.81916 0.980293 7.55169C0.947344 9.28422 1.58693 10.9621 2.76476 12.2331C3.94259 13.5041 5.56706 14.2694 7.29708 14.3682C9.02711 14.467 10.7281 13.8917 12.043 12.763L12.321 13.051V13.864L17.467 19L19 17.467L13.864 12.321ZM7.689 12.321C6.77312 12.3208 5.87786 12.049 5.11643 11.54C4.35499 11.0311 3.76158 10.3077 3.41123 9.46151C3.06087 8.61529 2.9693 7.68418 3.1481 6.78592C3.32691 5.88766 3.76804 5.06259 4.41574 4.41503C5.06344 3.76748 5.88861 3.32652 6.7869 3.14791C7.6852 2.9693 8.61629 3.06107 9.46244 3.41161C10.3086 3.76215 11.0318 4.35572 11.5406 5.11726C12.0494 5.8788 12.321 6.77412 12.321 7.69C12.3218 8.29837 12.2025 8.90093 11.9701 9.46314C11.7376 10.0254 11.3966 10.5362 10.9664 10.9664C10.5362 11.3966 10.0254 11.7376 9.46314 11.9701C8.90093 12.2025 8.29837 12.3218 7.69 12.321H7.689Z" fill="white"/>
</svg>
