<svg width="40" height="55" viewBox="0 0 40 55" fill="none" xmlns="http://www.w3.org/2000/svg">
<path d="M22.8801 43.637C23.6496 42.027 25.5665 41.4297 27.2783 41.9336C28.371 42.2552 29.4839 42.5658 30.6962 42.9107C32.5086 43.4264 33.7382 45.1743 33.325 47.0127C30.4235 59.9213 17.5931 54.6986 22.8801 43.637ZM39.8997 24.463C39.9002 24.463 39.9006 24.4626 39.9006 24.4621C39.7057 19.046 38.7344 11.9429 31.0022 13.0559C27.3764 13.9858 24.6992 17.8975 23.4404 24.6463C22.8481 28.6574 23.0273 32.7479 23.9678 36.6889C24.5071 38.2829 24.5234 38.6516 24.7951 38.8943C25.0651 39.1355 25.4393 39.2167 25.7928 39.2952C28.1306 39.8147 30.4502 40.3817 32.7934 40.9614C33.9117 41.238 35.125 41.0248 35.7715 40.0713C38.3581 36.2571 40.2733 27.0954 39.8987 24.464C39.8986 24.4634 39.8991 24.463 39.8997 24.463ZM16.0358 24.0512C16.9732 20.1079 17.1494 16.016 16.5544 12.0039C15.3044 5.25515 12.6249 1.3412 8.99908 0.413612C1.26204 -0.699492 0.295742 6.40445 0.100709 11.8207C-0.274582 14.4513 1.64307 23.6177 4.23262 27.4282C4.87913 28.3795 6.09064 28.5914 7.20738 28.3159C9.55645 27.7363 11.8823 27.171 14.2243 26.6465C14.5689 26.5693 14.9316 26.4882 15.1993 26.258C15.48 26.0168 15.4905 25.6581 16.0358 24.0512ZM9.30412 30.2682C7.49218 30.7839 6.26289 32.5314 6.67574 34.3695C9.57529 47.2789 22.4062 42.0546 17.1191 30.9943C16.3496 29.3844 14.4328 28.7872 12.7211 29.2911C11.6286 29.6128 10.516 29.9233 9.30412 30.2682Z" fill="#00CE7D"/>
</svg>
