<svg width="24" height="24" viewBox="0 0 24 24" fill="none" xmlns="http://www.w3.org/2000/svg">
<path d="M5.02036 20.0022C12.6083 22.0956 17.2909 17.8439 17.6749 12.9376H12.3431V10.1097H22.5V21.8229H19.6995V16.9645C18.9423 18.5506 17.7362 19.8742 16.2339 20.768C14.7315 21.6617 13.0004 22.0855 11.2596 21.9857C9.01891 22.0461 6.82266 21.3479 5.02036 20.0022H5.02036Z" fill="#00CE7D"/>
<path d="M11.8206 18.7882C10.9593 18.7683 10.1074 18.6028 9.30023 18.2985C8.4695 17.9885 7.70798 17.5151 7.05986 16.9056C6.41463 16.2951 5.90821 15.5505 5.57551 14.7232C4.82878 12.8909 4.82878 10.8349 5.57551 9.00258C5.90821 8.17531 6.41463 7.43075 7.05986 6.82024C7.71421 6.21857 8.474 5.74549 9.30023 5.42529C10.2223 5.08541 11.1984 4.91945 12.1799 4.93567C13.3222 4.91398 14.4554 5.14523 15.4998 5.61315C16.4526 6.06634 17.2463 6.8013 17.7758 7.72055H21.8954C21.5239 6.81789 20.9958 5.9895 20.3358 5.27441C19.6871 4.55771 18.9311 3.9481 18.0955 3.46778C17.2372 2.96533 16.3083 2.59773 15.3405 2.37761C14.3207 2.1179 13.2721 1.99129 12.2204 2.00089C10.8036 1.98331 9.39533 2.22573 8.06426 2.71635C6.79984 3.18587 5.63231 3.88748 4.62058 4.78578C3.66018 5.66053 2.88585 6.72325 2.34459 7.90941C1.77589 9.14704 1.48753 10.4971 1.50049 11.8614C1.48643 13.2373 1.7733 14.5994 2.34063 15.8504C4.26038 19.9523 10.0206 19.4257 11.8206 18.7882Z" fill="#13223B"/>
</svg>
